<svg width="40" height="40" viewBox="0 0 40 40" fill="none" xmlns="http://www.w3.org/2000/svg">
<path fill-rule="evenodd" clip-rule="evenodd" d="M20 37.5C24.6413 37.5 29.0925 35.6563 32.3744 32.3744C35.6563 29.0925 37.5 24.6413 37.5 20C37.5 15.3587 35.6563 10.9075 32.3744 7.62563C29.0925 4.34374 24.6413 2.5 20 2.5C15.3587 2.5 10.9075 4.34374 7.62563 7.62563C4.34374 10.9075 2.5 15.3587 2.5 20C2.5 24.6413 4.34374 29.0925 7.62563 32.3744C10.9075 35.6563 15.3587 37.5 20 37.5ZM20 40C25.3043 40 30.3914 37.8929 34.1421 34.1421C37.8929 30.3914 40 25.3043 40 20C40 14.6957 37.8929 9.60859 34.1421 5.85786C30.3914 2.10714 25.3043 0 20 0C14.6957 0 9.60859 2.10714 5.85786 5.85786C2.10714 9.60859 0 14.6957 0 20C0 25.3043 2.10714 30.3914 5.85786 34.1421C9.60859 37.8929 14.6957 40 20 40Z" fill="#FFBC00"/>
<path fill-rule="evenodd" clip-rule="evenodd" d="M20.8853 28.3851C21.0017 28.269 21.094 28.1311 21.1571 27.9792C21.2201 27.8273 21.2525 27.6645 21.2525 27.5001C21.2525 27.3357 21.2201 27.1729 21.1571 27.021C21.094 26.8692 21.0017 26.7312 20.8853 26.6151L14.2678 20.0001L20.8853 13.3851C21.0015 13.2689 21.0937 13.1309 21.1566 12.9791C21.2195 12.8272 21.2519 12.6645 21.2519 12.5001C21.2519 12.3358 21.2195 12.173 21.1566 12.0212C21.0937 11.8693 21.0015 11.7313 20.8853 11.6151C20.7691 11.4989 20.6311 11.4067 20.4792 11.3438C20.3274 11.2809 20.1646 11.2485 20.0003 11.2485C19.8359 11.2485 19.6732 11.2809 19.5213 11.3438C19.3695 11.4067 19.2315 11.4989 19.1153 11.6151L11.6153 19.1151C11.4989 19.2312 11.4065 19.3692 11.3435 19.521C11.2805 19.6729 11.248 19.8357 11.248 20.0001C11.248 20.1645 11.2805 20.3273 11.3435 20.4792C11.4065 20.6311 11.4989 20.769 11.6153 20.8851L19.1153 28.3851C19.2314 28.5015 19.3693 28.5939 19.5212 28.6569C19.6731 28.7199 19.8359 28.7523 20.0003 28.7523C20.1647 28.7523 20.3275 28.7199 20.4794 28.6569C20.6312 28.5939 20.7692 28.5015 20.8853 28.3851Z" fill="#FFBC00"/>
<path fill-rule="evenodd" clip-rule="evenodd" d="M28.75 20C28.75 19.6685 28.6183 19.3505 28.3839 19.1161C28.1495 18.8817 27.8315 18.75 27.5 18.75H15C14.6685 18.75 14.3505 18.8817 14.1161 19.1161C13.8817 19.3505 13.75 19.6685 13.75 20C13.75 20.3315 13.8817 20.6495 14.1161 20.8839C14.3505 21.1183 14.6685 21.25 15 21.25H27.5C27.8315 21.25 28.1495 21.1183 28.3839 20.8839C28.6183 20.6495 28.75 20.3315 28.75 20Z" fill="#FFBC00"/>
</svg>
