<svg width="26" height="26" viewBox="0 0 26 26" fill="none" xmlns="http://www.w3.org/2000/svg">
<path fill-rule="evenodd" clip-rule="evenodd" d="M13 24.375C16.0168 24.375 18.9101 23.1766 21.0433 21.0433C23.1766 18.9101 24.375 16.0168 24.375 13C24.375 9.98316 23.1766 7.08989 21.0433 4.95666C18.9101 2.82343 16.0168 1.625 13 1.625C9.98316 1.625 7.08989 2.82343 4.95666 4.95666C2.82343 7.08989 1.625 9.98316 1.625 13C1.625 16.0168 2.82343 18.9101 4.95666 21.0433C7.08989 23.1766 9.98316 24.375 13 24.375ZM13 26C16.4478 26 19.7544 24.6304 22.1924 22.1924C24.6304 19.7544 26 16.4478 26 13C26 9.55219 24.6304 6.24558 22.1924 3.80761C19.7544 1.36964 16.4478 0 13 0C9.55219 0 6.24558 1.36964 3.80761 3.80761C1.36964 6.24558 0 9.55219 0 13C0 16.4478 1.36964 19.7544 3.80761 22.1924C6.24558 24.6304 9.55219 26 13 26Z" fill="#242424"/>
<path fill-rule="evenodd" clip-rule="evenodd" d="M12.4242 18.4503C12.3486 18.3748 12.2886 18.2852 12.2476 18.1865C12.2066 18.0877 12.1855 17.9819 12.1855 17.875C12.1855 17.7682 12.2066 17.6624 12.2476 17.5636C12.2886 17.4649 12.3486 17.3753 12.4242 17.2998L16.7256 13L12.4242 8.7003C12.3487 8.62476 12.2888 8.53507 12.2479 8.43637C12.207 8.33767 12.186 8.23188 12.186 8.12505C12.186 8.01822 12.207 7.91243 12.2479 7.81373C12.2888 7.71503 12.3487 7.62534 12.4242 7.5498C12.4998 7.47426 12.5895 7.41433 12.6882 7.37345C12.7869 7.33257 12.8927 7.31152 12.9995 7.31152C13.1063 7.31152 13.2121 7.33257 13.3108 7.37345C13.4095 7.41433 13.4992 7.47426 13.5747 7.5498L18.4497 12.4248C18.5254 12.5003 18.5854 12.5899 18.6264 12.6886C18.6674 12.7874 18.6885 12.8932 18.6885 13C18.6885 13.1069 18.6674 13.2127 18.6264 13.3115C18.5854 13.4102 18.5254 13.4998 18.4497 13.5753L13.5747 18.4503C13.4993 18.526 13.4096 18.586 13.3109 18.627C13.2122 18.6679 13.1064 18.689 12.9995 18.689C12.8926 18.689 12.7868 18.6679 12.6881 18.627C12.5894 18.586 12.4997 18.526 12.4242 18.4503Z" fill="#242424"/>
<path fill-rule="evenodd" clip-rule="evenodd" d="M7.3125 13C7.3125 12.7845 7.3981 12.5778 7.55048 12.4255C7.70285 12.2731 7.90951 12.1875 8.125 12.1875H16.25C16.4655 12.1875 16.6722 12.2731 16.8245 12.4255C16.9769 12.5778 17.0625 12.7845 17.0625 13C17.0625 13.2155 16.9769 13.4222 16.8245 13.5745C16.6722 13.7269 16.4655 13.8125 16.25 13.8125H8.125C7.90951 13.8125 7.70285 13.7269 7.55048 13.5745C7.3981 13.4222 7.3125 13.2155 7.3125 13Z" fill="#242424"/>
</svg>
