<svg width="26" height="26" viewBox="0 0 26 26" fill="none" xmlns="http://www.w3.org/2000/svg">
<path fill-rule="evenodd" clip-rule="evenodd" d="M13 1.625C9.98316 1.625 7.08989 2.82343 4.95666 4.95666C2.82344 7.08989 1.625 9.98316 1.625 13C1.625 16.0168 2.82344 18.9101 4.95666 21.0433C7.08989 23.1766 9.98316 24.375 13 24.375C16.0168 24.375 18.9101 23.1766 21.0433 21.0433C23.1766 18.9101 24.375 16.0168 24.375 13C24.375 9.98316 23.1766 7.08989 21.0433 4.95666C18.9101 2.82343 16.0168 1.625 13 1.625ZM13 -1.1365e-06C9.55219 -1.43791e-06 6.24559 1.36964 3.80761 3.80761C1.36964 6.24558 1.43791e-06 9.55218 1.1365e-06 13C8.35079e-07 16.4478 1.36964 19.7544 3.80761 22.1924C6.24558 24.6304 9.55219 26 13 26C16.4478 26 19.7544 24.6304 22.1924 22.1924C24.6304 19.7544 26 16.4478 26 13C26 9.55219 24.6304 6.24558 22.1924 3.80761C19.7544 1.36964 16.4478 -8.35079e-07 13 -1.1365e-06Z" fill="#242424"/>
<path fill-rule="evenodd" clip-rule="evenodd" d="M13.5758 7.5497C13.6514 7.62517 13.7114 7.71484 13.7524 7.81355C13.7934 7.91226 13.8145 8.01808 13.8145 8.12495C13.8145 8.23182 13.7934 8.33764 13.7524 8.43635C13.7114 8.53507 13.6514 8.62473 13.5758 8.7002L9.27438 13L13.5758 17.2997C13.6513 17.3752 13.7112 17.4649 13.7521 17.5636C13.793 17.6623 13.814 17.7681 13.814 17.8749C13.814 17.9818 13.793 18.0876 13.7521 18.1863C13.7112 18.285 13.6513 18.3747 13.5758 18.4502C13.5002 18.5257 13.4105 18.5857 13.3118 18.6266C13.2131 18.6674 13.1073 18.6885 13.0005 18.6885C12.8937 18.6885 12.7879 18.6674 12.6892 18.6266C12.5905 18.5857 12.5008 18.5257 12.4253 18.4502L7.55025 13.5752C7.47459 13.4997 7.41455 13.4101 7.37359 13.3114C7.33263 13.2126 7.31155 13.1068 7.31155 12.9999C7.31155 12.8931 7.33263 12.7873 7.37359 12.6885C7.41455 12.5898 7.47459 12.5002 7.55025 12.4247L12.4253 7.5497C12.5007 7.47404 12.5904 7.414 12.6891 7.37304C12.7878 7.33208 12.8936 7.311 13.0005 7.311C13.1074 7.311 13.2132 7.33208 13.3119 7.37304C13.4106 7.414 13.5003 7.47404 13.5758 7.5497Z" fill="#242424"/>
<path fill-rule="evenodd" clip-rule="evenodd" d="M18.6875 13C18.6875 13.2155 18.6019 13.4222 18.4495 13.5745C18.2972 13.7269 18.0905 13.8125 17.875 13.8125L9.75 13.8125C9.53451 13.8125 9.32785 13.7269 9.17548 13.5745C9.0231 13.4221 8.9375 13.2155 8.9375 13C8.9375 12.7845 9.0231 12.5778 9.17548 12.4255C9.32785 12.2731 9.53451 12.1875 9.75 12.1875L17.875 12.1875C18.0905 12.1875 18.2972 12.2731 18.4495 12.4255C18.6019 12.5778 18.6875 12.7845 18.6875 13Z" fill="#242424"/>
</svg>
