<?xml version="1.0" standalone="no"?>
<!DOCTYPE svg PUBLIC "-//W3C//DTD SVG 1.1//EN" "http://www.w3.org/Graphics/SVG/1.1/DTD/svg11.dtd" >
<svg xmlns="http://www.w3.org/2000/svg" xmlns:xlink="http://www.w3.org/1999/xlink" version="1.1">
<metadata>
Created by FontForge 20190801 at Sat Feb 17 00:02:38 2001
 By root
(URW)++,Copyright 2000 by (URW)++ Design &#38; Development
</metadata>
<defs>
<font id="NimbusSansNovusDOT-SemBol" horiz-adv-x="519" >
  <font-face 
    font-family="Nimbus Sans Novus D OT"
    font-weight="600"
    font-stretch="normal"
    units-per-em="1000"
    panose-1="2 0 0 0 0 0 0 0 0 0"
    ascent="800"
    descent="-200"
    x-height="483"
    cap-height="667"
    bbox="-143 -250 1001 913"
    underline-thickness="77"
    underline-position="-89"
    stemh="79"
    stemv="108"
    unicode-range="U+0020-FB02"
  />
<missing-glyph horiz-adv-x="250" 
 />
    <glyph glyph-name="fi" unicode="fi" horiz-adv-x="496" 
d="M67 405h-80v78h80v29c0 63 6 89 26 113c26 32 65 46 123 46c19 0 33 -1 57 -3v-83c-19 2 -29 3 -42 3c-45 0 -59 -14 -59 -58v-47h92v-78h-90v-405h-107v405zM449 667v-101h-107v101h107zM449 483v-483h-107v483h107z" />
    <glyph glyph-name="fl" unicode="fl" horiz-adv-x="496" 
d="M67 405h-80v78h80v29c0 63 6 89 26 113c26 32 65 46 123 46c19 0 33 -1 57 -3v-83c-19 2 -29 3 -42 3c-45 0 -59 -14 -59 -58v-47h92v-78h-90v-405h-107v405zM449 667v-667h-107v667h107z" />
    <glyph glyph-name=".notdef" horiz-adv-x="250" 
 />
    <glyph glyph-name="space" unicode=" " horiz-adv-x="250" 
 />
    <glyph glyph-name="space" unicode="&#xa0;" horiz-adv-x="250" 
 />
    <glyph glyph-name="exclam" unicode="!" horiz-adv-x="254" 
d="M196 667v-191l-34 -291h-55l-29 290v192h118zM198 118v-118h-122v118h122z" />
    <glyph glyph-name="quotedbl" unicode="&#x22;" horiz-adv-x="371" 
d="M141 400h-88l-20 267h129zM318 400h-88l-20 267h128z" />
    <glyph glyph-name="numbersign" unicode="#" 
d="M357 217l-26 -179h-63l25 179h-105l-25 -179h-64l25 179h-111l9 63h111l14 98h-111l8 63h112l23 165h64l-23 -165h104l23 165h64l-23 -165h118l-9 -63h-118l-14 -98h118l-9 -63h-117zM315 378h-104l-14 -98h105z" />
    <glyph glyph-name="dollar" unicode="$" 
d="M283 580v-196c148 -34 207 -90 207 -195c0 -71 -32 -130 -90 -168c-33 -22 -65 -30 -117 -33v-107h-53v107c-129 2 -213 90 -212 221h108c-1 -82 36 -130 104 -134v220c-133 29 -196 88 -196 184c0 104 80 179 196 184v89h53v-89c118 -8 190 -80 188 -188h-105
c-1 64 -31 102 -83 105zM230 395v186c-57 -5 -96 -41 -96 -89c0 -27 12 -55 32 -70c13 -11 29 -18 64 -27zM283 283v-209c66 5 104 42 104 102c0 56 -28 84 -104 107z" />
    <glyph glyph-name="percent" unicode="%" horiz-adv-x="804" 
d="M182 658c96 0 149 -63 149 -178c0 -125 -54 -192 -153 -192s-153 66 -153 186c0 118 56 184 157 184zM179 597c-48 0 -71 -41 -71 -127c0 -83 22 -122 69 -122c49 0 72 41 72 131c0 79 -23 118 -70 118zM621 651l-368 -651h-70l369 651h69zM629 363
c96 0 149 -63 149 -178c0 -124 -54 -191 -153 -191s-153 65 -153 186c0 117 56 183 157 183zM626 302c-48 0 -71 -41 -71 -127c0 -82 22 -121 69 -121c49 0 72 41 72 130c0 79 -23 118 -70 118z" />
    <glyph glyph-name="ampersand" unicode="&#x26;" horiz-adv-x="611" 
d="M445 319h94c-5 -61 -27 -128 -54 -165l131 -154h-131l-62 75c-9 -11 -30 -32 -48 -45c-39 -29 -86 -44 -139 -44c-124 0 -209 78 -209 193c0 58 26 111 74 149c27 22 56 40 77 50c-47 57 -66 100 -66 146c0 87 69 149 165 149c94 0 161 -62 161 -149
c0 -69 -41 -129 -118 -170l102 -126c10 20 20 59 23 91zM267 419l4 2l2 1c46 27 72 63 72 101c0 41 -29 71 -68 71s-69 -29 -69 -66c0 -27 16 -57 55 -104zM366 147l-133 162c-72 -41 -101 -77 -101 -127c0 -59 49 -107 109 -107c48 0 84 21 125 72z" />
    <glyph glyph-name="quoteright" unicode="&#x2019;" horiz-adv-x="234" 
d="M180 667v-93c0 -64 -12 -102 -41 -133c-23 -24 -43 -34 -86 -44v56c37 12 59 44 60 91h-60v123h127z" />
    <glyph glyph-name="parenleft" unicode="(" horiz-adv-x="296" 
d="M172 667h86c-77 -137 -113 -271 -113 -426c0 -147 38 -287 114 -420h-87c-57 97 -68 118 -87 170c-32 84 -47 163 -47 247c0 96 16 180 50 268c20 55 57 124 84 161z" />
    <glyph glyph-name="parenright" unicode=")" horiz-adv-x="296" 
d="M124 -179h-86c77 136 113 271 113 426c0 147 -38 287 -114 420h87c56 -96 68 -118 87 -170c32 -85 47 -162 47 -247c0 -96 -16 -180 -49 -268c-21 -55 -58 -124 -85 -161z" />
    <glyph glyph-name="asterisk" unicode="*" 
d="M416 536l-107 -36l66 -88l-50 -37l-67 92l-64 -92l-52 37l65 88l-104 36l21 59l103 -39v111h64l-1 -111l103 39z" />
    <glyph glyph-name="plus" unicode="+" 
d="M36 365h185v182h77v-182h185v-77h-185v-181h-77v181h-185v77z" />
    <glyph glyph-name="comma" unicode="," horiz-adv-x="215" 
d="M171 123v-87c0 -67 -10 -104 -37 -134c-24 -25 -54 -42 -90 -49v56c38 12 58 42 60 91h-60v123h127z" />
    <glyph glyph-name="hyphen" unicode="-" horiz-adv-x="240" 
d="M240 298v-97h-240v97h240z" />
    <glyph glyph-name="hyphen" unicode="&#xad;" horiz-adv-x="240" 
d="M240 298v-97h-240v97h240z" />
    <glyph glyph-name="period" unicode="." horiz-adv-x="215" 
d="M173 126v-126h-130v126h130z" />
    <glyph glyph-name="slash" unicode="/" horiz-adv-x="417" 
d="M384 667l-325 -846h-94l326 846h93z" />
    <glyph glyph-name="zero" unicode="0" 
d="M261 663c149 0 225 -115 225 -341c0 -217 -78 -333 -224 -333c-151 0 -229 114 -229 335c0 223 78 339 228 339zM260 574c-86 0 -119 -71 -119 -256c0 -168 36 -240 120 -240c82 0 117 72 117 245c0 178 -34 251 -118 251z" />
    <glyph glyph-name="one" unicode="1" 
d="M364 660v-660h-113v453h-47h-47h-48h-22v79c116 0 174 39 192 128h85z" />
    <glyph glyph-name="two" unicode="2" 
d="M477 95v-95h-448c5 124 50 188 196 284c69 46 97 67 114 88c20 24 31 55 31 88c0 70 -41 113 -107 113c-77 0 -110 -46 -114 -158h-103c0 158 79 248 220 248c127 0 212 -79 212 -198c0 -56 -19 -104 -57 -145c-24 -26 -52 -47 -123 -94c-80 -51 -121 -89 -142 -131h321z
" />
    <glyph glyph-name="three" unicode="3" 
d="M141 446h-101c4 135 84 217 213 217c121 0 203 -71 203 -176c0 -63 -36 -115 -92 -134c75 -18 119 -76 119 -154c0 -124 -95 -210 -232 -210c-136 0 -227 86 -227 214v14h103c3 -93 45 -139 128 -139c73 0 120 46 120 118c0 71 -48 110 -134 110c-10 0 -20 0 -34 -2v81
c51 0 66 2 88 10c35 12 57 44 57 85c0 56 -40 94 -100 94c-69 0 -108 -45 -111 -128z" />
    <glyph glyph-name="four" unicode="4" 
d="M487 244v-89h-83v-155h-103v155h-278v104l280 401h101v-416h83zM302 244l3 287l-195 -287h192z" />
    <glyph glyph-name="five" unicode="5" 
d="M443 651v-92h-261l-32 -172c28 34 70 50 128 50c119 0 201 -88 201 -214c0 -138 -96 -234 -234 -234c-129 0 -217 78 -222 197h106c6 -65 53 -108 119 -108c78 0 123 51 123 139c0 86 -47 138 -126 138c-48 0 -81 -18 -109 -59l-94 3l63 352h338z" />
    <glyph glyph-name="six" unicode="6" 
d="M475 489h-104c-10 59 -43 89 -99 89c-78 0 -121 -69 -132 -210c0 -1 0 -9 -1 -16c36 54 85 81 149 81c120 0 202 -87 202 -215c0 -133 -92 -229 -221 -229c-150 0 -234 118 -234 328c0 217 91 347 243 347c111 0 185 -66 197 -175zM269 348c-72 0 -116 -51 -116 -132
c0 -82 47 -138 115 -138c69 0 114 54 114 136c0 79 -46 134 -113 134z" />
    <glyph glyph-name="seven" unicode="7" 
d="M489 651v-90c-134 -135 -231 -364 -239 -561h-115c-3 80 48 252 102 349c42 79 111 174 147 203h-340v99h445z" />
    <glyph glyph-name="eight" unicode="8" 
d="M148 352c-58 21 -93 72 -93 137c0 102 85 174 206 174c118 0 201 -71 201 -171c0 -66 -33 -115 -93 -140c27 -8 41 -15 56 -25c42 -29 64 -76 64 -133c0 -123 -92 -205 -232 -205c-135 0 -228 81 -228 199c0 81 44 142 119 164zM261 578c-65 0 -106 -37 -106 -95
c0 -57 42 -96 104 -96c63 0 103 37 103 96c0 57 -40 95 -101 95zM260 311c-74 0 -123 -46 -123 -117c0 -74 48 -120 125 -120c75 0 119 44 119 117c0 72 -48 120 -121 120z" />
    <glyph glyph-name="nine" unicode="9" 
d="M42 163h102c11 -58 46 -89 103 -89c62 0 100 44 119 137c6 30 9 60 10 91c-19 -28 -24 -35 -35 -44c-32 -28 -66 -40 -111 -40c-117 0 -201 90 -201 215c0 134 93 230 222 230c75 0 138 -34 179 -95c36 -55 52 -123 52 -226c0 -85 -15 -162 -43 -221
c-43 -90 -105 -132 -198 -132c-110 0 -193 73 -199 174zM250 573c-69 0 -113 -53 -113 -138c0 -80 44 -132 112 -132s114 53 114 132c0 82 -46 138 -113 138z" />
    <glyph glyph-name="colon" unicode=":" horiz-adv-x="232" 
d="M189 126v-126h-130v126h130zM189 477v-126h-130v126h130z" />
    <glyph glyph-name="semicolon" unicode=";" horiz-adv-x="232" 
d="M189 123v-87c0 -67 -10 -104 -37 -134c-24 -25 -54 -42 -90 -49v56c38 12 58 42 60 91h-60v123h127zM189 477v-126h-130v126h130z" />
    <glyph glyph-name="less" unicode="&#x3c;" horiz-adv-x="500" 
d="M466 602v-116l-310 -150l310 -151v-115l-433 217v98z" />
    <glyph glyph-name="equal" unicode="=" 
d="M36 439h447v-75h-447v75zM36 289h447v-75h-447v75z" />
    <glyph glyph-name="greater" unicode="&#x3e;" horiz-adv-x="500" 
d="M34 70v116l310 150l-310 151v115l433 -217v-98z" />
    <glyph glyph-name="question" unicode="?" horiz-adv-x="486" 
d="M140 455h-107c3 62 14 101 38 137c39 56 104 88 183 88c125 0 208 -74 208 -186c0 -70 -24 -109 -108 -179c-44 -35 -58 -66 -58 -134h-100c2 111 10 129 100 209c39 37 53 64 53 104c0 58 -38 95 -96 95c-72 0 -108 -43 -113 -134zM305 118v-118h-121v118h121z" />
    <glyph glyph-name="at" unicode="@" horiz-adv-x="730" 
d="M628 179h65c-23 -50 -42 -76 -83 -110c-67 -56 -147 -85 -230 -85c-195 0 -351 156 -351 349c0 195 157 350 355 350c177 0 318 -128 318 -289c0 -78 -33 -146 -94 -194c-41 -33 -90 -52 -131 -52c-35 0 -65 17 -76 44c-39 -33 -70 -46 -107 -46c-73 0 -125 57 -125 137
c0 118 102 237 204 237c42 0 76 -17 97 -49l12 33h83l-84 -250c-4 -14 -8 -30 -8 -37c0 -12 11 -21 25 -21c25 0 61 20 88 50c37 40 57 90 57 144c0 133 -114 238 -258 238c-165 0 -293 -129 -293 -294c0 -164 128 -293 291 -293c99 0 194 54 245 138zM407 298l23 65
c8 23 12 38 12 51c0 31 -21 55 -48 55s-58 -21 -83 -58c-27 -39 -49 -107 -49 -152c0 -39 18 -65 45 -65c43 0 74 32 100 104z" />
    <glyph glyph-name="A" unicode="A" horiz-adv-x="638" 
d="M382 667l256 -667h-125l-64 177h-263l-66 -177h-121l258 667h125zM419 266l-102 278l-101 -278h203z" />
    <glyph glyph-name="B" unicode="B" horiz-adv-x="630" 
d="M52 667h287c73 0 113 -6 147 -23c54 -28 88 -83 88 -145s-36 -116 -95 -140c84 -24 125 -77 125 -162c0 -72 -35 -134 -96 -169c-34 -19 -75 -28 -134 -28h-322v667zM169 572v-183h148c39 0 68 3 85 9c34 11 55 43 55 83c0 41 -19 71 -52 83c-13 5 -43 8 -84 8h-152z
M169 305v-210h164c58 0 87 5 109 18c29 17 45 49 45 87c0 46 -23 81 -60 95c-21 8 -45 10 -105 10h-153z" />
    <glyph glyph-name="C" unicode="C" horiz-adv-x="650" 
d="M513 255h116c-4 -66 -27 -126 -66 -174c-55 -66 -127 -97 -224 -97c-187 0 -311 139 -311 350c0 206 130 349 317 349c90 0 161 -29 216 -88c38 -41 59 -89 63 -140h-116c-16 81 -78 129 -165 129c-71 0 -124 -30 -158 -89c-26 -44 -40 -102 -40 -161
c0 -154 76 -251 197 -251c98 0 157 60 171 172z" />
    <glyph glyph-name="D" unicode="D" horiz-adv-x="652" 
d="M52 667h254c100 0 164 -20 218 -68c64 -57 99 -147 99 -254c0 -117 -32 -208 -94 -271c-55 -54 -112 -74 -216 -74h-261v667zM169 567v-467h128c80 0 117 12 151 49c38 43 58 107 58 190c0 149 -72 228 -207 228h-130z" />
    <glyph glyph-name="E" unicode="E" horiz-adv-x="562" 
d="M533 667v-100h-364v-176h337v-95h-337v-196h370v-100h-487v667h481z" />
    <glyph glyph-name="F" unicode="F" horiz-adv-x="517" 
d="M513 667v-100h-344v-181h302v-95h-302v-291h-117v667h461z" />
    <glyph glyph-name="G" unicode="G" horiz-adv-x="690" 
d="M645 355v-355h-75l-18 79c-53 -65 -119 -95 -207 -95c-188 0 -317 140 -317 344c0 211 133 355 327 355c153 0 269 -93 282 -228h-114c-14 79 -79 129 -170 129c-129 0 -208 -97 -208 -254c0 -155 79 -247 212 -247c73 0 128 30 160 88c14 26 20 51 22 95h-180v89h286z
" />
    <glyph glyph-name="H" unicode="H" horiz-adv-x="643" 
d="M591 667v-667h-117v300h-305v-300h-117v667h117v-267h305v267h117z" />
    <glyph glyph-name="I" unicode="I" horiz-adv-x="221" 
d="M169 667v-667h-117v667h117z" />
    <glyph glyph-name="J" unicode="J" horiz-adv-x="457" 
d="M416 667v-450c0 -79 -8 -116 -33 -154c-35 -52 -93 -79 -173 -79c-90 0 -155 33 -187 94c-17 33 -24 71 -24 131c0 8 0 15 1 26h110v-20c0 -45 3 -70 12 -89c13 -30 43 -46 85 -46c36 0 62 12 76 35c12 19 16 47 16 99v453h117z" />
    <glyph glyph-name="K" unicode="K" horiz-adv-x="606" 
d="M612 667l-267 -266l284 -401h-145l-219 319l-96 -94v-225h-117v667h117v-308l295 308h148z" />
    <glyph glyph-name="L" unicode="L" horiz-adv-x="515" 
d="M509 100v-100h-457v667h117v-567h340z" />
    <glyph glyph-name="M" unicode="M" horiz-adv-x="797" 
d="M745 667v-667h-112l5 540l-190 -540h-95l-194 530l5 -530h-112v667h164l186 -522l179 522h164z" />
    <glyph glyph-name="N" unicode="N" horiz-adv-x="646" 
d="M595 667v-667h-121l-313 498l2 -498h-111v667h121l313 -499l-2 499h111z" />
    <glyph glyph-name="O" unicode="O" horiz-adv-x="697" 
d="M353 683c185 0 315 -144 315 -349c0 -208 -130 -350 -320 -350s-320 141 -320 349c0 211 129 350 325 350zM351 584c-126 0 -206 -96 -206 -249c0 -154 80 -252 205 -252c122 0 201 99 201 252c0 149 -80 249 -200 249z" />
    <glyph glyph-name="P" unicode="P" horiz-adv-x="589" 
d="M52 667h271c87 0 129 -9 169 -37c54 -36 82 -93 82 -166c0 -72 -26 -129 -75 -166c-40 -31 -83 -42 -160 -42h-170v-256h-117v667zM169 569v-218h154c46 0 74 7 95 22c25 19 39 51 39 88c0 39 -16 71 -45 89c-22 14 -48 19 -100 19h-143z" />
    <glyph glyph-name="Q" unicode="Q" horiz-adv-x="690" 
d="M660 4l-57 -64l-99 85c-41 -26 -100 -41 -159 -41c-188 0 -317 143 -317 350c0 205 132 349 320 349c187 0 319 -143 319 -347c0 -106 -35 -202 -95 -257zM411 220l79 -70c45 59 60 105 60 186c0 151 -79 248 -203 248c-122 0 -202 -98 -202 -249
c0 -154 79 -252 204 -252c30 0 48 3 75 14l-69 59z" />
    <glyph glyph-name="R" unicode="R" horiz-adv-x="648" 
d="M52 667h316c66 0 104 -8 140 -30c54 -32 84 -87 84 -155c0 -81 -39 -140 -110 -165c30 -5 53 -21 72 -48c21 -37 23 -46 33 -165c5 -53 11 -79 23 -95l7 -9h-126c-13 24 -15 36 -21 134c-4 62 -21 105 -49 122c-19 13 -52 19 -97 19h-155v-275h-117v667zM169 570v-208
h154c58 0 87 5 110 20c27 18 42 47 42 86c0 43 -20 77 -55 91c-18 7 -47 11 -82 11h-169z" />
    <glyph glyph-name="S" unicode="S" horiz-adv-x="580" 
d="M530 471h-112c-8 80 -55 119 -144 119c-80 0 -128 -35 -128 -94c0 -27 11 -48 31 -59c26 -15 44 -20 138 -42c87 -20 127 -34 161 -56c52 -35 80 -84 80 -145c0 -129 -102 -209 -265 -209c-176 0 -279 87 -281 237h115c3 -95 62 -144 173 -144c89 0 143 40 143 106
c0 34 -15 56 -54 75c-21 11 -31 14 -102 31c-89 22 -154 45 -182 63c-45 29 -69 75 -69 134c0 118 97 195 247 195c154 0 244 -77 249 -211z" />
    <glyph glyph-name="T" unicode="T" horiz-adv-x="526" 
d="M534 667v-100h-213v-567h-117v567h-213v100h543z" />
    <glyph glyph-name="U" unicode="U" horiz-adv-x="633" 
d="M590 667v-391c0 -104 -11 -151 -49 -201c-47 -62 -118 -91 -223 -91c-113 0 -189 33 -235 103c-30 45 -41 95 -41 191v389h117v-395c0 -71 5 -99 23 -130c23 -40 70 -61 138 -61c64 0 108 19 130 57c17 30 23 65 23 134v395h117z" />
    <glyph glyph-name="V" unicode="V" horiz-adv-x="581" 
d="M582 667l-227 -667h-131l-225 667h123l170 -536l169 536h121z" />
    <glyph glyph-name="W" unicode="W" horiz-adv-x="883" 
d="M877 667l-181 -667h-120l-136 515l-135 -515h-122l-177 667h120l121 -517l136 517h119l134 -515l123 515h118z" />
    <glyph glyph-name="X" unicode="X" horiz-adv-x="594" 
d="M587 667l-221 -321l238 -346h-144l-166 253l-168 -253h-136l238 346l-221 321h140l152 -235l156 235h132z" />
    <glyph glyph-name="Y" unicode="Y" horiz-adv-x="575" 
d="M596 667l-250 -402v-265h-117v266l-251 401h135l176 -292l176 292h131z" />
    <glyph glyph-name="Z" unicode="Z" horiz-adv-x="578" 
d="M553 667v-92l-389 -475h400v-100h-548v97l387 470h-358v100h508z" />
    <glyph glyph-name="bracketleft" unicode="[" horiz-adv-x="296" 
d="M276 667v-79h-112v-688h112v-79h-209v846h209z" />
    <glyph glyph-name="backslash" unicode="\" horiz-adv-x="417" 
d="M33 667h93l326 -846h-94z" />
    <glyph glyph-name="bracketright" unicode="]" horiz-adv-x="296" 
d="M20 -179v79h112v688h-112v79h209v-846h-209z" />
    <glyph glyph-name="asciicircum" unicode="^" horiz-adv-x="500" 
d="M128 362h-105l162 307h130l162 -307h-105l-122 229z" />
    <glyph glyph-name="underscore" unicode="_" horiz-adv-x="500" 
d="M0 -51h500v-77h-500v77z" />
    <glyph glyph-name="quoteleft" unicode="&#x2018;" horiz-adv-x="234" 
d="M53 407v93c0 64 12 102 41 133c23 24 43 34 86 44v-56c-37 -12 -59 -44 -60 -91h60v-123h-127z" />
    <glyph glyph-name="a" unicode="a" horiz-adv-x="502" 
d="M141 333h-100c9 108 81 163 211 163c83 0 148 -23 178 -63c17 -21 23 -46 23 -90c0 -13 0 -13 -1 -65c-1 -16 -1 -43 -2 -83c-1 -31 -1 -53 -1 -56c0 -63 2 -69 27 -69c6 0 11 0 24 2v-75c-32 -8 -49 -11 -69 -11c-46 0 -72 19 -78 58c-46 -40 -99 -58 -171 -58
c-99 0 -162 56 -162 144c0 44 17 82 49 106c36 27 53 31 167 45c102 13 112 18 112 63c0 49 -32 73 -100 73c-69 0 -98 -23 -107 -84zM347 184v57c-26 -14 -38 -17 -113 -27c-49 -6 -71 -14 -86 -29c-13 -12 -20 -31 -20 -51c0 -46 32 -72 88 -72c52 0 101 21 120 51
c9 15 11 27 11 71z" />
    <glyph glyph-name="b" unicode="b" horiz-adv-x="553" 
d="M154 667v-247c38 51 90 76 158 76c129 0 214 -100 214 -251c0 -155 -88 -258 -220 -258c-73 0 -125 26 -159 79v-66h-100v667h107zM287 411c-86 0 -137 -64 -137 -169s52 -170 135 -170c80 0 133 69 133 172c0 101 -52 167 -131 167z" />
    <glyph glyph-name="c" unicode="c" horiz-adv-x="506" 
d="M381 181h105c-16 -121 -99 -194 -221 -194c-145 0 -238 98 -238 250c0 157 94 259 240 259c124 0 204 -65 216 -176h-106c-12 59 -50 91 -109 91c-83 0 -133 -64 -133 -170c0 -105 48 -168 129 -168c65 0 107 39 117 108z" />
    <glyph glyph-name="d" unicode="d" horiz-adv-x="553" 
d="M505 667v-667h-100v66c-33 -53 -84 -79 -155 -79c-137 0 -223 99 -223 256c0 155 85 253 219 253c68 0 122 -27 152 -76v247h107zM269 411c-84 0 -134 -63 -134 -168s52 -171 134 -171c83 0 133 64 133 169s-51 170 -133 170z" />
    <glyph glyph-name="e" unicode="e" horiz-adv-x="516" 
d="M382 151h102c-25 -103 -107 -164 -219 -164c-143 0 -238 100 -238 249c0 151 98 260 234 260c92 0 168 -48 204 -131c18 -40 26 -86 25 -149h-357c4 -96 51 -150 134 -150c58 0 93 26 115 85zM135 287h249c-7 80 -54 130 -124 130s-114 -46 -125 -130z" />
    <glyph glyph-name="f" unicode="f" horiz-adv-x="265" 
d="M273 668v-83c-19 2 -29 3 -42 3c-45 0 -59 -14 -59 -58v-47h92v-78h-90v-405h-107v405h-80v78h80v29c0 63 6 89 26 113c26 32 65 46 123 46c19 0 33 -1 57 -3z" />
    <glyph glyph-name="g" unicode="g" horiz-adv-x="541" 
d="M493 483v-427c0 -79 -8 -118 -32 -156c-36 -59 -104 -89 -201 -89c-131 0 -204 49 -217 148h108c10 -49 45 -72 112 -72c88 0 127 43 127 142v57c-34 -55 -83 -81 -153 -81c-128 0 -210 94 -210 241c0 150 86 250 216 250c67 0 111 -24 150 -81v68h100zM264 411
c-80 0 -129 -60 -129 -158c0 -102 48 -163 126 -163c79 0 129 63 129 163c0 97 -49 158 -126 158z" />
    <glyph glyph-name="h" unicode="h" horiz-adv-x="518" 
d="M154 667v-253c31 54 85 83 152 83c65 0 117 -26 144 -71c16 -27 22 -59 22 -117v-309h-107v293c0 43 -4 64 -15 80c-15 23 -43 35 -79 35c-47 0 -84 -23 -103 -64c-11 -25 -14 -47 -14 -113v-231h-107v667h107z" />
    <glyph glyph-name="i" unicode="i" horiz-adv-x="201" 
d="M154 667v-101h-107v101h107zM154 483v-483h-107v483h107z" />
    <glyph glyph-name="j" unicode="j" horiz-adv-x="202" 
d="M155 483v-490c0 -84 -5 -110 -28 -138s-60 -41 -115 -41c-14 0 -25 1 -45 4v86c12 -1 18 -2 25 -2c27 0 42 5 48 17c7 13 8 27 8 94v470h107zM155 667v-101h-107v101h107z" />
    <glyph glyph-name="k" unicode="k" horiz-adv-x="482" 
d="M478 483l-185 -177l202 -306h-130l-147 234l-64 -60v-174h-107v667h107v-376l193 192h131z" />
    <glyph glyph-name="l" unicode="l" horiz-adv-x="201" 
d="M154 667v-667h-107v667h107z" />
    <glyph glyph-name="m" unicode="m" horiz-adv-x="794" 
d="M147 483v-68c45 58 88 81 153 81c66 0 108 -26 135 -82c42 57 89 82 156 82c55 0 105 -23 132 -61c18 -27 26 -57 26 -106v-329h-107v296c0 34 -3 58 -10 71c-12 25 -39 40 -75 40c-44 0 -79 -22 -95 -59c-8 -18 -11 -39 -11 -89v-259h-107v302c0 76 -23 105 -80 105
c-43 0 -80 -23 -97 -61c-9 -19 -13 -45 -13 -87v-259h-107v483h100z" />
    <glyph glyph-name="n" unicode="n" horiz-adv-x="517" 
d="M147 483v-71c44 59 91 84 161 84c61 0 115 -26 140 -68c18 -29 24 -59 24 -120v-308h-107v281c0 42 -2 60 -9 79c-11 29 -43 47 -83 47c-47 0 -87 -24 -104 -62c-11 -24 -15 -52 -15 -103v-242h-107v483h100z" />
    <glyph glyph-name="o" unicode="o" horiz-adv-x="543" 
d="M275 496c146 0 240 -100 240 -255c0 -156 -94 -254 -243 -254s-245 100 -245 254c0 156 97 255 248 255zM273 411c-86 0 -138 -64 -138 -170c0 -105 52 -169 137 -169c84 0 135 64 135 170c0 104 -52 169 -134 169z" />
    <glyph glyph-name="p" unicode="p" horiz-adv-x="554" 
d="M147 483v-64c39 53 88 77 159 77c134 0 221 -101 221 -257c0 -152 -85 -252 -215 -252c-70 0 -122 25 -158 76v-242h-107v662h100zM286 411c-85 0 -136 -63 -136 -169s51 -170 136 -170c82 0 133 64 133 167c0 105 -52 172 -133 172z" />
    <glyph glyph-name="q" unicode="q" horiz-adv-x="553" 
d="M505 483v-662h-107v244c-37 -53 -87 -78 -157 -78c-130 0 -214 99 -214 252c0 157 86 257 221 257c74 0 123 -24 157 -77v64h100zM269 411c-83 0 -134 -65 -134 -173c0 -102 51 -166 132 -166c84 0 135 65 135 172c0 102 -51 167 -133 167z" />
    <glyph glyph-name="r" unicode="r" horiz-adv-x="318" 
d="M330 493v-103c-18 2 -27 3 -38 3c-38 0 -69 -12 -94 -36c-34 -33 -44 -70 -44 -163v-194h-107v483h100v-96c39 74 88 107 164 107c3 0 10 0 19 -1z" />
    <glyph glyph-name="s" unicode="s" horiz-adv-x="475" 
d="M427 343h-102c-7 53 -38 75 -104 75c-55 0 -87 -21 -87 -56c0 -36 19 -47 123 -69c72 -15 110 -29 140 -50s48 -57 48 -98c0 -97 -82 -158 -211 -158c-137 0 -211 57 -217 168h102c7 -61 44 -89 117 -89c63 0 104 28 104 70c0 36 -22 50 -115 72c-98 22 -111 26 -139 42
c-37 21 -58 58 -58 103c0 89 74 143 197 143c75 0 134 -21 168 -60c21 -24 30 -48 34 -93z" />
    <glyph glyph-name="t" unicode="t" horiz-adv-x="277" 
d="M266 483v-78h-97v-254c0 -61 8 -71 57 -71c14 0 25 1 40 3v-84c-30 -3 -49 -4 -72 -4c-62 0 -97 13 -116 43c-14 23 -16 42 -16 137v230h-81v78h81v145h107v-145h97z" />
    <glyph glyph-name="u" unicode="u" horiz-adv-x="516" 
d="M469 483v-483h-100v72c-44 -59 -92 -85 -160 -85c-55 0 -103 20 -132 55c-24 29 -33 66 -33 131v310h107v-276c0 -56 3 -78 14 -95c14 -23 42 -36 78 -36c45 0 82 22 103 62c12 22 16 51 16 108v237h107z" />
    <glyph glyph-name="v" unicode="v" horiz-adv-x="450" 
d="M459 483l-173 -483h-119l-177 483h116l124 -365l119 365h110z" />
    <glyph glyph-name="w" unicode="w" horiz-adv-x="693" 
d="M700 483l-152 -483h-109l-93 352l-89 -352h-110l-153 483h114l97 -357l89 357h107l91 -349l99 349h109z" />
    <glyph glyph-name="x" unicode="x" horiz-adv-x="466" 
d="M460 483l-166 -224l187 -259h-130l-120 177l-120 -177h-126l182 255l-167 228h129l103 -146l104 146h124z" />
    <glyph glyph-name="y" unicode="y" horiz-adv-x="461" 
d="M469 483l-179 -474c-35 -95 -47 -119 -68 -145c-27 -34 -62 -49 -112 -49c-19 0 -36 1 -73 6v89c30 -4 43 -6 55 -6c26 0 43 11 55 36c14 29 24 57 27 76l-184 467h117l129 -360l122 360h111z" />
    <glyph glyph-name="z" unicode="z" horiz-adv-x="439" 
d="M425 483v-74l-272 -324h287v-85h-427v81l267 317h-248v85h393z" />
    <glyph glyph-name="braceleft" unicode="{" horiz-adv-x="296" 
d="M164 476v-116c0 -63 -14 -91 -56 -116c42 -25 56 -55 56 -119v-115c0 -51 6 -74 21 -91c10 -10 37 -18 63 -18h12v-80h-3c-107 1 -124 4 -152 30c-27 24 -38 59 -38 117v140c0 59 -15 86 -57 97v79c40 11 57 39 57 95v150c0 54 12 87 39 110c28 24 46 27 151 28h3v-80
h-12c-27 0 -54 -10 -65 -23c-14 -17 -19 -39 -19 -88z" />
    <glyph glyph-name="bar" unicode="|" horiz-adv-x="500" 
d="M192 667h117v-834h-117v834z" />
    <glyph glyph-name="braceright" unicode="}" horiz-adv-x="296" 
d="M133 12v116c0 63 14 91 56 116c-42 25 -56 55 -56 119v115c0 51 -6 74 -22 91c-10 10 -37 18 -63 18h-12v80h3c108 -1 125 -4 153 -30c27 -24 38 -59 38 -117v-140c0 -59 15 -86 56 -97v-79c-40 -11 -56 -39 -56 -95v-150c0 -54 -12 -87 -39 -110
c-28 -24 -46 -27 -152 -28h-3v80h13c27 0 54 9 65 23c14 17 19 39 19 88z" />
    <glyph glyph-name="asciitilde" unicode="~" horiz-adv-x="667" 
d="M152 566l-58 47c35 83 83 125 143 125c26 0 57 -10 114 -36c54 -25 65 -29 84 -29c32 0 55 19 82 68l58 -48c-37 -87 -82 -123 -153 -123c-24 0 -38 5 -113 39c-36 17 -59 24 -77 24c-30 0 -53 -19 -80 -67z" />
    <glyph glyph-name="exclamdown" unicode="&#xa1;" horiz-adv-x="254" 
d="M78 0v191l34 291h55l29 -290v-192h-118zM76 549v118h122v-118h-122z" />
    <glyph glyph-name="cent" unicode="&#xa2;" 
d="M390 280h101c-9 -108 -92 -189 -197 -193v-100h-53v100c-128 12 -208 108 -208 251c0 142 73 233 208 255v82h53v-82c108 -3 189 -76 196 -176h-104c-6 50 -43 88 -92 95v-342c49 4 89 50 96 110zM241 170v340c-65 -17 -103 -78 -103 -168c0 -95 37 -157 103 -172z" />
    <glyph glyph-name="sterling" unicode="&#xa3;" 
d="M492 448h-106c-3 81 -45 124 -120 124c-65 0 -112 -40 -112 -95c0 -27 6 -47 25 -84c9 -18 13 -25 19 -38h137v-59h-113c10 -29 13 -44 13 -62c0 -52 -22 -92 -80 -143c-4 -3 -9 -7 -13 -11c39 17 64 23 96 23c22 0 42 -3 70 -10c48 -13 51 -14 69 -14c32 0 66 14 88 35
l48 -79c-31 -31 -85 -51 -140 -51c-36 0 -42 1 -109 22c-35 11 -64 16 -87 16c-33 0 -58 -9 -99 -37l-50 76c71 52 101 99 101 156c0 26 -6 50 -19 79h-85v59h58c-27 37 -42 81 -42 125c0 109 91 183 224 183c142 0 226 -80 227 -215z" />
    <glyph glyph-name="fraction" unicode="&#x2044;" horiz-adv-x="155" 
d="M299 657l-372 -657h-70l374 657h68z" />
    <glyph glyph-name="fraction" unicode="&#x2215;" horiz-adv-x="155" 
d="M299 657l-372 -657h-70l374 657h68z" />
    <glyph glyph-name="yen" unicode="&#xa5;" 
d="M489 436v-59h-121l-48 -99h137v-59h-146v-219h-103v219h-145v59h136l-47 99h-120v59h92l-105 215h118l123 -274l123 274h117l-104 -215h93z" />
    <glyph glyph-name="florin" unicode="&#x192;" 
d="M440 460l-13 -75h-95l-66 -379c-14 -83 -26 -114 -55 -143c-29 -30 -66 -42 -131 -42c-19 0 -32 1 -57 2l13 84c16 -1 24 -1 32 -1c60 0 73 16 90 107l65 372h-85l13 75h86l19 111c9 53 20 81 40 106c31 37 72 52 142 52c20 0 34 -1 58 -2l-16 -84c-22 1 -29 1 -36 1
c-50 0 -69 -19 -80 -81l-19 -103h95z" />
    <glyph glyph-name="section" unicode="&#xa7;" 
d="M448 506h-99c-3 58 -34 89 -86 89c-47 0 -79 -27 -79 -67c0 -36 17 -53 96 -96c91 -50 119 -66 149 -88c47 -34 68 -72 68 -120c0 -62 -36 -113 -97 -138c38 -34 51 -62 51 -107c0 -93 -78 -158 -188 -158c-120 0 -194 67 -197 179h100c7 -65 38 -94 99 -94
c48 0 82 29 82 70c0 27 -14 47 -53 73c-28 20 -37 25 -130 74c-51 27 -83 49 -103 70c-23 26 -38 64 -38 102c0 64 38 116 98 134c-29 31 -41 59 -41 96c0 89 77 153 184 153c112 0 184 -68 184 -172zM176 378c-36 -11 -59 -41 -59 -74c0 -41 17 -56 152 -128
c17 -9 32 -18 38 -22c24 -15 25 -15 35 -20c34 11 59 43 59 74c0 43 -23 61 -187 149c-13 7 -26 14 -38 21z" />
    <glyph glyph-name="currency" unicode="&#xa4;" horiz-adv-x="680" 
d="M44 108l96 97c-28 42 -43 89 -43 136c0 46 12 80 45 136l-99 98l61 61l99 -100c59 34 90 44 137 44c48 0 74 -9 134 -43l99 98l61 -61l-97 -96c32 -50 45 -90 45 -139c0 -46 -10 -77 -43 -134l97 -97l-60 -61l-97 97c-45 -31 -87 -45 -134 -45c-46 0 -90 14 -144 45
l-97 -96zM342 482c-80 0 -143 -62 -143 -141c0 -78 64 -141 141 -141c78 0 141 63 141 141c0 77 -63 141 -139 141z" />
    <glyph glyph-name="quotesingle" unicode="'" horiz-adv-x="194" 
d="M141 400h-88l-20 267h129z" />
    <glyph glyph-name="quotedblleft" unicode="&#x201c;" horiz-adv-x="396" 
d="M225 408v100c0 92 41 152 117 169v-54c-37 -12 -57 -45 -57 -92h57v-123h-117zM53 408v100c0 92 41 152 117 169v-54c-37 -12 -57 -45 -57 -92h57v-123h-117z" />
    <glyph glyph-name="guillemotleft" unicode="&#xab;" horiz-adv-x="391" 
d="M353 414v-96l-88 -68l88 -70v-96l-144 114v103zM171 414v-95l-91 -68l91 -70v-98l-147 116v102z" />
    <glyph glyph-name="guilsinglleft" unicode="&#x2039;" horiz-adv-x="206" 
d="M169 414v-96l-89 -68l89 -69v-97l-145 115v102z" />
    <glyph glyph-name="guilsinglright" unicode="&#x203a;" horiz-adv-x="205" 
d="M37 414l144 -115v-103l-144 -112v95l89 68l-89 69v98z" />
    <glyph glyph-name="endash" unicode="&#x2013;" 
d="M473 298v-97h-427v97h427z" />
    <glyph glyph-name="dagger" unicode="&#x2020;" 
d="M489 479v-91h-179v-567h-103v567h-177v91h177v188h103v-188h179z" />
    <glyph glyph-name="daggerdbl" unicode="&#x2021;" 
d="M489 477v-90h-179v-286h179v-90h-179v-190h-103v190h-177v90h177v286h-177v90h177v190h103v-190h179z" />
    <glyph glyph-name="periodcentered" unicode="&#xb7;" horiz-adv-x="215" 
d="M173 312v-126h-130v126h130z" />
    <glyph glyph-name="periodcentered" unicode="&#x2219;" horiz-adv-x="215" 
d="M173 312v-126h-130v126h130z" />
    <glyph glyph-name="paragraph" unicode="&#xb6;" 
d="M206 -179v497h-14c-99 0 -168 71 -168 172c0 67 29 123 78 151c33 19 70 26 132 26h243v-63h-44v-783h-74v783h-79v-783h-74z" />
    <glyph glyph-name="bullet" unicode="&#x2022;" horiz-adv-x="667" 
d="M337 477c74 0 136 -63 136 -138c0 -77 -62 -139 -138 -139s-139 62 -139 138c0 78 62 139 141 139z" />
    <glyph glyph-name="quotesinglbase" unicode="&#x201a;" horiz-adv-x="234" 
d="M180 123v-93c0 -64 -12 -102 -41 -133c-23 -24 -43 -34 -86 -44v56c37 12 59 44 60 91h-60v123h127z" />
    <glyph glyph-name="quotedblbase" unicode="&#x201e;" horiz-adv-x="396" 
d="M170 123v-100c0 -92 -41 -151 -117 -168v53c37 13 57 45 57 92h-57v123h117zM342 123v-100c0 -92 -41 -151 -117 -168v53c37 13 57 45 57 92h-57v123h117z" />
    <glyph glyph-name="quotedblright" unicode="&#x201d;" horiz-adv-x="396" 
d="M170 667v-100c0 -92 -41 -151 -117 -168v53c37 13 57 45 57 92h-57v123h117zM342 667v-100c0 -92 -41 -151 -117 -168v53c37 13 57 45 57 92h-57v123h117z" />
    <glyph glyph-name="guillemotright" unicode="&#xbb;" horiz-adv-x="391" 
d="M220 415l146 -117v-102l-146 -113v95l90 68l-90 71v98zM37 413l145 -114v-102l-145 -113v95l89 68l-89 69v97z" />
    <glyph glyph-name="ellipsis" unicode="&#x2026;" horiz-adv-x="646" 
d="M173 126v-126h-130v126h130zM388 126v-126h-130v126h130zM604 126v-126h-130v126h130z" />
    <glyph glyph-name="perthousand" unicode="&#x2030;" horiz-adv-x="1027" 
d="M164 656c86 0 134 -57 134 -159s-51 -161 -138 -161s-135 56 -135 159c0 104 49 161 139 161zM162 600c-41 0 -61 -36 -61 -108c0 -66 20 -99 60 -99c39 0 60 36 60 104s-20 103 -59 103zM562 651l-368 -651h-63l369 651h62zM534 315c86 0 134 -57 134 -159
s-51 -161 -138 -161s-135 56 -135 159c0 104 49 161 139 161zM532 259c-41 0 -61 -36 -61 -108c0 -66 20 -99 60 -99c39 0 60 36 60 104s-20 103 -59 103zM867 315c86 0 134 -57 134 -159s-51 -161 -138 -161s-135 56 -135 159c0 104 49 161 139 161zM865 259
c-41 0 -61 -36 -61 -108c0 -66 20 -99 60 -99c39 0 60 36 60 104s-20 103 -59 103z" />
    <glyph glyph-name="questiondown" unicode="&#xbf;" horiz-adv-x="487" 
d="M356 212h107c-3 -62 -14 -101 -38 -137c-39 -57 -104 -88 -183 -88c-126 0 -209 74 -209 186c0 70 23 108 108 179c45 35 58 65 58 133h101c-2 -111 -10 -128 -101 -209c-39 -36 -53 -63 -53 -103c0 -58 38 -95 96 -95c73 0 109 43 114 134zM190 549v118h122v-118h-122z
" />
    <glyph glyph-name="grave" unicode="`" horiz-adv-x="500" 
d="M119 693h116l67 -141h-70z" />
    <glyph glyph-name="acute" unicode="&#xb4;" horiz-adv-x="500" 
d="M382 693l-113 -141h-70l67 141h116z" />
    <glyph glyph-name="circumflex" unicode="&#x2c6;" horiz-adv-x="500" 
d="M389 552h-90l-51 85l-53 -85h-84l90 141h97z" />
    <glyph glyph-name="tilde" unicode="&#x2dc;" horiz-adv-x="500" 
d="M350 679h51c-9 -71 -42 -111 -90 -111c-18 0 -43 8 -83 24c-21 9 -31 12 -40 12c-20 0 -31 -12 -39 -41h-50c8 69 44 111 94 111c23 0 30 -2 96 -31c7 -3 16 -5 23 -5c20 0 31 12 38 41z" />
    <glyph glyph-name="macron" unicode="&#xaf;" horiz-adv-x="500" 
d="M399 652v-62h-297v62h297z" />
    <glyph glyph-name="macron" unicode="&#x2c9;" horiz-adv-x="500" 
d="M399 652v-62h-297v62h297z" />
    <glyph glyph-name="breve" unicode="&#x2d8;" horiz-adv-x="500" 
d="M317 693h69c-10 -93 -57 -141 -138 -141c-82 0 -131 51 -135 141h69c8 -50 30 -74 69 -74c38 0 56 20 66 74z" />
    <glyph glyph-name="dotaccent" unicode="&#x2d9;" horiz-adv-x="500" 
d="M301 673v-102h-103v102h103z" />
    <glyph glyph-name="dieresis" unicode="&#xa8;" horiz-adv-x="500" 
d="M396 673v-102h-103v102h103zM208 673v-102h-103v102h103z" />
    <glyph glyph-name="ring" unicode="&#x2da;" horiz-adv-x="500" 
d="M252 734c53 0 98 -46 98 -100c0 -55 -45 -100 -100 -100s-100 45 -100 101c0 55 45 99 102 99zM251 683c-28 0 -50 -22 -50 -49s22 -49 49 -49s49 22 49 49c0 26 -22 49 -48 49z" />
    <glyph glyph-name="cedilla" unicode="&#xb8;" horiz-adv-x="500" 
d="M281 0l-39 -58c17 4 25 5 36 5c41 0 74 -29 74 -65c0 -52 -42 -85 -109 -85c-30 0 -57 6 -96 20l17 38c22 -11 46 -16 68 -16c27 0 47 16 47 37c0 20 -19 34 -45 34c-11 0 -19 -2 -34 -7l-17 18l56 79h42z" />
    <glyph glyph-name="hungarumlaut" unicode="&#x2dd;" horiz-adv-x="500" 
d="M425 693l-76 -141h-60l40 141h96zM278 693l-76 -141h-60l40 141h96z" />
    <glyph glyph-name="ogonek" unicode="&#x2db;" horiz-adv-x="500" 
d="M274 0h63c-41 -32 -55 -51 -55 -76c0 -29 25 -48 63 -48c11 0 20 1 37 6v-52c-25 -8 -38 -10 -59 -10c-66 0 -110 35 -110 87c0 33 15 56 61 93z" />
    <glyph glyph-name="caron" unicode="&#x2c7;" horiz-adv-x="500" 
d="M111 693h90l51 -85l53 85h84l-90 -141h-97z" />
    <glyph glyph-name="emdash" unicode="&#x2014;" horiz-adv-x="702" 
d="M702 298v-97h-702v97h702z" />
    <glyph glyph-name="AE" unicode="&#xc6;" horiz-adv-x="882" 
d="M851 667v-100h-323v-176h304v-95h-304v-196h330v-100h-443v171h-222l-83 -171h-131l334 667h538zM415 260v307h-34l-147 -307h181z" />
    <glyph glyph-name="ordfeminine" unicode="&#xaa;" horiz-adv-x="344" 
d="M104 463h-70c6 69 51 103 137 103c53 0 96 -14 115 -38c11 -14 15 -29 15 -57c0 0 -1 -29 -2 -86c-1 -20 -1 -33 -1 -35c0 -34 1 -36 14 -36c5 0 9 0 18 2v-51c-20 -5 -34 -7 -47 -7c-28 0 -43 9 -51 32c-29 -22 -63 -32 -107 -32c-64 0 -105 35 -105 89
c0 27 12 51 32 65c23 16 37 20 108 28c63 7 68 10 68 34c0 27 -19 40 -60 40c-43 0 -59 -13 -64 -51zM227 379v28c-14 -7 -22 -8 -68 -14c-48 -6 -64 -17 -64 -44c0 -25 19 -39 53 -39s67 14 75 33c3 7 4 15 4 36z" />
    <glyph glyph-name="Lslash" unicode="&#x141;" horiz-adv-x="515" 
d="M51 344v323h117v-255l127 90v-94l-127 -90v-216h341v-102h-458v250l-57 -42v94z" />
    <glyph glyph-name="Oslash" unicode="&#xd8;" horiz-adv-x="699" 
d="M18 19l79 87c-48 72 -67 138 -67 230c0 207 129 347 320 347c81 0 144 -22 199 -68l75 82l49 -45l-78 -87c51 -59 75 -133 75 -232c0 -205 -131 -349 -318 -349c-83 0 -130 17 -210 75l-75 -85zM519 480l-306 -343c44 -38 86 -54 140 -54c123 0 200 97 200 253
c0 60 -8 93 -34 144zM176 196l304 340c-36 32 -79 48 -131 48c-56 0 -108 -23 -144 -65c-38 -42 -58 -106 -58 -187c0 -51 8 -87 29 -136z" />
    <glyph glyph-name="OE" unicode="&#x152;" horiz-adv-x="1000" 
d="M969 667v-100h-348v-176h318v-95h-318v-196h354v-100h-464v60c-34 -47 -100 -75 -176 -75c-178 0 -306 143 -306 343c0 207 130 353 313 353c80 0 140 -24 170 -67v53h457zM508 231v207c0 46 -5 65 -26 90c-30 35 -74 54 -127 54c-126 0 -209 -100 -209 -250
c0 -148 82 -248 203 -248c96 0 159 58 159 147z" />
    <glyph glyph-name="ordmasculine" unicode="&#xba;" horiz-adv-x="361" 
d="M183 566c93 0 154 -61 154 -154s-61 -153 -156 -153s-157 61 -157 153c0 94 62 154 159 154zM182 509c-52 0 -83 -36 -83 -96c0 -61 31 -97 82 -97s81 37 81 97c0 59 -31 96 -80 96z" />
    <glyph glyph-name="ae" unicode="&#xe6;" horiz-adv-x="820" 
d="M686 152h103c-26 -104 -107 -165 -220 -165c-80 0 -140 31 -173 89c-43 -61 -107 -89 -200 -89c-109 0 -175 54 -175 144c0 53 26 98 70 119c36 17 52 21 175 36c65 8 85 23 85 61c0 47 -34 71 -99 71c-69 0 -101 -26 -108 -86h-103c5 53 19 84 50 111
c38 34 98 53 165 53c79 0 134 -23 161 -67c34 43 89 67 151 67c139 0 227 -99 227 -258c0 -2 0 -12 -1 -22h-347c0 -94 46 -150 124 -150c56 0 95 28 115 86zM446 287h242c-5 82 -50 131 -121 131c-41 0 -79 -20 -99 -53c-12 -20 -19 -42 -22 -78zM350 176v65
c-25 -15 -36 -18 -106 -26c-85 -11 -113 -31 -113 -78c0 -48 34 -77 90 -77c37 0 72 12 97 35c23 20 32 44 32 81z" />
    <glyph glyph-name="dotlessi" unicode="&#x131;" horiz-adv-x="201" 
d="M154 483v-483h-107v483h107z" />
    <glyph glyph-name="lslash" unicode="&#x142;" horiz-adv-x="224" 
d="M58 362v305h107v-246l53 39v-85l-53 -39v-336h-107v276l-53 -38v85z" />
    <glyph glyph-name="oslash" unicode="&#xf8;" horiz-adv-x="556" 
d="M29 12l56 62c-35 48 -52 105 -52 169c0 151 100 253 248 253c62 0 106 -14 149 -48l56 60l41 -37l-57 -61c37 -49 52 -95 52 -161c0 -162 -93 -262 -245 -262c-60 0 -101 13 -153 48l-54 -61zM398 332l-208 -227c27 -23 53 -33 89 -33c83 0 135 64 135 166
c0 36 -4 57 -16 94zM158 151l208 228c-28 22 -54 32 -87 32c-82 0 -138 -67 -138 -168c0 -34 5 -63 17 -92z" />
    <glyph glyph-name="oe" unicode="&#x153;" horiz-adv-x="844" 
d="M710 153h103c-28 -106 -108 -166 -220 -166c-85 0 -137 27 -172 89c-32 -60 -88 -89 -168 -89c-138 0 -226 99 -226 254c0 154 92 255 233 255c76 0 132 -28 166 -82c37 54 94 82 167 82c83 0 154 -39 189 -104c26 -48 37 -98 36 -176h-348c-1 -3 -1 -4 -1 -5
c0 -86 52 -146 127 -146c56 0 91 27 114 88zM469 287h242c-2 37 -8 55 -21 76c-22 34 -59 54 -100 54c-44 0 -84 -23 -104 -61c-10 -19 -14 -37 -17 -69zM260 411c-79 0 -125 -63 -125 -170c0 -106 46 -169 123 -169c76 0 118 63 118 175c0 103 -43 164 -116 164z" />
    <glyph glyph-name="germandbls" unicode="&#xdf;" horiz-adv-x="509" 
d="M216 -6v85c14 -3 21 -4 32 -4c77 0 125 51 125 131c0 85 -46 124 -144 124h-13v74c6 -1 12 -1 14 -1c75 0 115 34 115 98c0 55 -38 92 -95 92c-37 0 -66 -14 -80 -39c-13 -22 -16 -44 -16 -104v-450h-107v430c0 96 7 131 32 168c34 51 98 80 173 80
c117 0 196 -68 196 -170c0 -65 -35 -117 -91 -134c79 -17 124 -79 124 -171c0 -66 -27 -126 -76 -167c-38 -32 -82 -46 -143 -46c-16 0 -27 1 -46 4z" />
    <glyph glyph-name="onesuperior" unicode="&#xb9;" horiz-adv-x="349" 
d="M245 663v-396h-78v267h-26h-29h-31h-17v54c75 -1 111 21 121 75h60z" />
    <glyph glyph-name="logicalnot" unicode="&#xac;" horiz-adv-x="500" 
d="M353 0v182h-320v102h433v-284h-113z" />
    <glyph glyph-name="mu" unicode="&#xb5;" horiz-adv-x="500" 
d="M41 -168v648h99v-261c0 -59 5 -80 25 -105c22 -27 51 -42 83 -42c68 0 113 61 113 153v255h99v-480h-99v79c-24 -61 -60 -90 -115 -90c-47 0 -78 19 -106 67v-224h-99z" />
    <glyph glyph-name="mu" unicode="&#x3bc;" horiz-adv-x="500" 
d="M41 -168v648h99v-261c0 -59 5 -80 25 -105c22 -27 51 -42 83 -42c68 0 113 61 113 153v255h99v-480h-99v79c-24 -61 -60 -90 -115 -90c-47 0 -78 19 -106 67v-224h-99z" />
    <glyph glyph-name="trademark" unicode="&#x2122;" horiz-adv-x="839" 
d="M331 667v-63h-128v-317h-77v317h-127v63h332zM789 667v-380h-73v276l-106 -276h-62l-109 268v-268h-72v380h103l110 -279l105 279h104z" />
    <glyph glyph-name="Eth" unicode="&#xd0;" horiz-adv-x="653" 
d="M51 667h255c100 0 164 -20 218 -68c64 -57 99 -147 99 -254c0 -117 -32 -209 -94 -271c-55 -54 -112 -74 -217 -74h-261v309h-63v83h63v275zM168 567v-175h146v-83h-146v-209h128c80 0 118 12 151 49c38 43 58 107 58 190c0 149 -72 228 -207 228h-130z" />
    <glyph glyph-name="onehalf" unicode="&#xbd;" horiz-adv-x="853" 
d="M241 663v-396h-78v267h-26h-29h-31h-17v54c75 -1 111 21 121 75h60zM648 657l-372 -657h-70l374 657h68zM823 63v-63h-289c2 77 31 116 125 174c76 47 90 63 90 101c0 39 -24 63 -64 63c-47 0 -66 -25 -69 -93h-71c0 99 50 153 142 153c82 0 137 -48 137 -120
c0 -34 -13 -64 -37 -88c-17 -17 -31 -27 -78 -56c-48 -29 -69 -47 -86 -71h200z" />
    <glyph glyph-name="plusminus" unicode="&#xb1;" 
d="M36 365h185v182h77v-182h185v-77h-185v-175h-77v175h-185v77zM36 77h447v-77h-447v77z" />
    <glyph glyph-name="Thorn" unicode="&#xde;" horiz-adv-x="592" 
d="M52 667h117v-100h154c86 0 129 -9 169 -37c54 -36 82 -93 82 -166c0 -71 -26 -128 -75 -165c-40 -31 -83 -42 -160 -42h-170v-157h-117v667zM169 469v-217h154c46 0 75 7 96 22c25 19 39 50 39 87c0 40 -16 71 -45 89c-22 14 -49 19 -101 19h-143z" />
    <glyph glyph-name="onequarter" unicode="&#xbc;" horiz-adv-x="853" 
d="M241 663v-396h-78v267h-26h-29h-31h-17v54c75 -1 111 21 121 75h60zM648 657l-372 -657h-70l374 657h68zM831 151v-60h-53v-91h-71v91h-175v67l178 238h68v-245h53zM711 148v163l-119 -163h119z" />
    <glyph glyph-name="divide" unicode="&#xf7;" 
d="M260 553c33 0 61 -29 61 -62c0 -34 -28 -62 -62 -62s-62 28 -62 63c0 33 28 61 63 61zM261 226c33 0 61 -29 61 -62c0 -35 -28 -63 -62 -63c-35 0 -63 28 -63 63c0 34 28 62 64 62zM36 365h447v-77h-447v77z" />
    <glyph glyph-name="brokenbar" unicode="&#xa6;" horiz-adv-x="500" 
d="M192 667h117v-344h-117v344zM192 153h117v-320h-117v320z" />
    <glyph glyph-name="degree" unicode="&#xb0;" horiz-adv-x="372" 
d="M187 670c85 0 153 -69 153 -155c0 -84 -69 -153 -153 -153c-85 0 -154 69 -154 154s69 154 154 154zM185 617c-52 0 -97 -46 -97 -101s44 -101 99 -101c52 0 98 46 98 99c0 57 -44 103 -100 103z" />
    <glyph glyph-name="thorn" unicode="&#xfe;" horiz-adv-x="554" 
d="M154 667v-248c35 52 84 77 153 77c133 0 220 -102 220 -257c0 -152 -86 -252 -215 -252c-70 0 -122 25 -158 76v-242h-107v846h107zM286 411c-86 0 -136 -63 -136 -169s51 -170 136 -170c82 0 133 64 133 167c0 105 -52 172 -133 172z" />
    <glyph glyph-name="threequarters" unicode="&#xbe;" horiz-adv-x="853" 
d="M98 530h-71c3 85 54 135 138 135c78 0 131 -44 131 -107c0 -36 -16 -61 -49 -80c42 -14 66 -47 66 -91c0 -75 -61 -127 -149 -127c-93 0 -147 52 -146 141h71c2 -56 26 -81 77 -81c44 0 72 26 72 66c0 39 -29 61 -80 61c-7 0 -14 0 -25 -1v54h10c56 0 81 16 81 53
c0 32 -24 53 -60 53c-42 0 -64 -26 -66 -76zM647 657l-372 -657h-70l374 657h68zM830 151v-60h-53v-91h-71v91h-176v67l179 238h68v-245h53zM710 148v163l-120 -163h120z" />
    <glyph glyph-name="twosuperior" unicode="&#xb2;" horiz-adv-x="349" 
d="M315 329v-63h-289c2 77 31 116 125 174c77 49 90 63 90 102s-24 63 -64 63c-47 0 -66 -25 -69 -93h-71c0 99 50 153 142 153c82 0 137 -48 137 -120c0 -34 -13 -64 -37 -88c-17 -18 -30 -26 -78 -56s-69 -48 -86 -72h200z" />
    <glyph glyph-name="registered" unicode="&#xae;" horiz-adv-x="753" 
d="M209 525h195c40 0 64 -5 86 -17c34 -19 53 -51 53 -91c0 -42 -19 -73 -56 -92c39 -19 47 -38 53 -119c2 -28 6 -43 12 -51l12 -13h-89c-8 11 -11 24 -13 52c-6 89 -16 102 -85 102h-88v-154h-80v383zM289 462v-108h88c63 0 86 15 86 55c0 37 -23 53 -77 53h-97zM382 683
c187 0 343 -159 343 -350c0 -192 -156 -349 -348 -349c-191 0 -348 157 -348 349c0 196 156 350 353 350zM381 626c-162 0 -290 -129 -290 -293c0 -160 129 -292 286 -292c158 0 286 131 286 292c0 160 -128 293 -282 293z" />
    <glyph glyph-name="minus" unicode="&#x2212;" 
d="M36 365h447v-77h-447v77z" />
    <glyph glyph-name="eth" unicode="&#xf0;" horiz-adv-x="543" 
d="M177 578l79 33l-30 60l63 28l37 -60l79 34l22 -48l-72 -31l82 -131c59 -95 78 -148 78 -221c0 -154 -97 -255 -243 -255c-148 0 -245 101 -245 254c0 148 97 256 229 256c18 0 32 -2 60 -8l-38 74l-80 -33zM273 412c-86 0 -138 -64 -138 -170c0 -105 52 -169 137 -169
c84 0 135 64 135 170c0 104 -52 169 -134 169z" />
    <glyph glyph-name="multiply" unicode="&#xd7;" 
d="M60 182l145 145l-143 143l54 54l143 -143l145 145l54 -54l-145 -145l143 -143l-54 -54l-143 142l-145 -145z" />
    <glyph glyph-name="threesuperior" unicode="&#xb3;" horiz-adv-x="349" 
d="M102 530h-71c3 85 54 135 138 135c78 0 131 -44 131 -107c0 -36 -16 -61 -49 -80c42 -14 66 -47 66 -91c0 -75 -61 -127 -149 -127c-93 0 -147 52 -146 141h71c2 -56 26 -81 77 -81c44 0 72 26 72 66c0 39 -29 61 -80 61c-7 0 -14 0 -25 -1v54h10c56 0 81 16 81 53
c0 32 -24 53 -60 53c-42 0 -64 -26 -66 -76z" />
    <glyph glyph-name="copyright" unicode="&#xa9;" horiz-adv-x="753" 
d="M480 294h78c-5 -98 -75 -161 -179 -161c-115 0 -191 80 -191 200c0 118 80 200 195 200c95 0 166 -56 172 -136h-78c-10 46 -44 72 -95 72c-69 0 -114 -53 -114 -135c0 -83 44 -136 113 -136c58 0 90 32 99 96zM382 683c187 0 343 -159 343 -350
c0 -192 -156 -349 -348 -349c-191 0 -348 157 -348 349c0 196 156 350 353 350zM381 626c-162 0 -290 -129 -290 -293c0 -160 129 -292 286 -292c158 0 286 131 286 292c0 160 -128 293 -282 293z" />
    <glyph glyph-name="Aacute" unicode="&#xc1;" horiz-adv-x="638" 
d="M382 667l256 -667h-125l-64 177h-263l-66 -177h-121l258 667h125zM419 266l-102 278l-101 -278h203zM480 851l-126 -128h-77l78 128h125z" />
    <glyph glyph-name="Acircumflex" unicode="&#xc2;" horiz-adv-x="638" 
d="M382 667l256 -667h-125l-64 177h-263l-66 -177h-121l258 667h125zM419 266l-102 278l-101 -278h203zM472 723h-89l-64 81l-64 -81h-90l100 128h107z" />
    <glyph glyph-name="Adieresis" unicode="&#xc4;" horiz-adv-x="638" 
d="M382 667l256 -667h-125l-64 177h-263l-66 -177h-121l258 667h125zM419 266l-102 278l-101 -278h203zM476 835v-99h-107v99h107zM268 835v-99h-107v99h107z" />
    <glyph glyph-name="Agrave" unicode="&#xc0;" horiz-adv-x="638" 
d="M382 667l256 -667h-125l-64 177h-263l-66 -177h-121l258 667h125zM419 266l-102 278l-101 -278h203zM161 851h125l78 -128h-77z" />
    <glyph glyph-name="Aring" unicode="&#xc5;" horiz-adv-x="638" 
d="M382 667l256 -667h-125l-64 177h-263l-66 -177h-121l258 667h125zM419 266l-102 278l-101 -278h203zM320 913c55 0 102 -47 102 -103c0 -57 -47 -103 -103 -103c-58 0 -104 46 -104 104c0 56 47 102 105 102zM319 860c-28 0 -51 -22 -51 -50c0 -27 23 -50 50 -50
c28 0 51 23 51 50s-23 50 -50 50z" />
    <glyph glyph-name="Atilde" unicode="&#xc3;" horiz-adv-x="638" 
d="M382 667l256 -667h-125l-64 177h-263l-66 -177h-121l258 667h125zM419 266l-102 278l-101 -278h203zM432 844h53c-14 -71 -47 -107 -99 -107c-20 0 -31 3 -92 23c-22 8 -36 11 -46 11c-21 0 -35 -12 -44 -40h-51c12 70 48 108 104 108c26 0 34 -2 100 -29
c10 -4 21 -6 31 -6c22 0 36 12 44 40z" />
    <glyph glyph-name="Ccedilla" unicode="&#xc7;" horiz-adv-x="650" 
d="M513 255h116c-10 -157 -127 -270 -280 -270l-30 -43c18 4 26 5 35 5c44 0 78 -28 78 -66c0 -51 -45 -86 -111 -86c-31 0 -58 6 -97 20l17 38c23 -11 46 -16 68 -16c27 0 47 16 47 38c0 20 -19 34 -45 34c-11 0 -18 -1 -34 -7l-17 18l46 66c-164 10 -278 151 -278 346
c0 103 31 189 93 257c57 64 131 94 226 94c90 0 158 -28 214 -89c36 -40 57 -85 63 -139h-117c-14 78 -79 129 -164 129c-119 0 -198 -99 -198 -249c0 -66 15 -126 43 -170c36 -57 85 -83 155 -83c97 0 160 64 170 173z" />
    <glyph glyph-name="Eacute" unicode="&#xc9;" horiz-adv-x="562" 
d="M533 667v-100h-364v-176h337v-95h-337v-196h370v-100h-487v667h481zM437 851l-126 -128h-77l78 128h125z" />
    <glyph glyph-name="Ecircumflex" unicode="&#xca;" horiz-adv-x="562" 
d="M533 667v-100h-364v-176h337v-95h-337v-196h370v-100h-487v667h481zM449 723h-89l-64 81l-64 -81h-90l100 128h107z" />
    <glyph glyph-name="Edieresis" unicode="&#xcb;" horiz-adv-x="562" 
d="M533 667v-100h-364v-176h337v-95h-337v-196h370v-100h-487v667h481zM452 835v-99h-107v99h107zM244 835v-99h-107v99h107z" />
    <glyph glyph-name="Egrave" unicode="&#xc8;" horiz-adv-x="562" 
d="M533 667v-100h-364v-176h337v-95h-337v-196h370v-100h-487v667h481zM167 851h125l78 -128h-77z" />
    <glyph glyph-name="Iacute" unicode="&#xcd;" horiz-adv-x="221" 
d="M169 667v-667h-117v667h117zM249 851l-109 -128h-77l64 128h122z" />
    <glyph glyph-name="Icircumflex" unicode="&#xce;" horiz-adv-x="221" 
d="M168 667v-667h-117v667h117zM247 723h-86l-51 81l-51 -81h-86l84 128h106z" />
    <glyph glyph-name="Idieresis" unicode="&#xcf;" horiz-adv-x="221" 
d="M168 667v-667h-117v667h117zM232 835v-99h-98v99h98zM86 835v-99h-98v99h98z" />
    <glyph glyph-name="Igrave" unicode="&#xcc;" horiz-adv-x="221" 
d="M169 667v-667h-117v667h117zM-24 851h122l64 -128h-77z" />
    <glyph glyph-name="Ntilde" unicode="&#xd1;" horiz-adv-x="646" 
d="M595 667v-667h-121l-313 498l2 -498h-111v667h121l313 -499l-2 499h111zM443 844h53c-14 -71 -47 -107 -99 -107c-20 0 -31 3 -92 23c-22 8 -36 11 -46 11c-21 0 -35 -12 -44 -40h-51c12 70 48 108 104 108c26 0 34 -2 100 -29c10 -4 21 -6 31 -6c22 0 36 12 44 40z" />
    <glyph glyph-name="Oacute" unicode="&#xd3;" horiz-adv-x="697" 
d="M353 683c185 0 315 -144 315 -349c0 -208 -130 -350 -320 -350s-320 141 -320 349c0 211 129 350 325 350zM351 584c-126 0 -206 -96 -206 -249c0 -154 80 -252 205 -252c122 0 201 99 201 252c0 149 -80 249 -200 249zM500 851l-126 -128h-77l78 128h125z" />
    <glyph glyph-name="Ocircumflex" unicode="&#xd4;" horiz-adv-x="697" 
d="M353 683c185 0 315 -144 315 -349c0 -208 -130 -350 -320 -350s-320 141 -320 349c0 211 129 350 325 350zM351 584c-126 0 -206 -96 -206 -249c0 -154 80 -252 205 -252c122 0 201 99 201 252c0 149 -80 249 -200 249zM501 723h-89l-64 81l-64 -81h-90l100 128h107z" />
    <glyph glyph-name="Odieresis" unicode="&#xd6;" horiz-adv-x="697" 
d="M353 683c185 0 315 -144 315 -349c0 -208 -130 -350 -320 -350s-320 141 -320 349c0 211 129 350 325 350zM351 584c-126 0 -206 -96 -206 -249c0 -154 80 -252 205 -252c122 0 201 99 201 252c0 149 -80 249 -200 249zM505 835v-99h-107v99h107zM297 835v-99h-107v99
h107z" />
    <glyph glyph-name="Ograve" unicode="&#xd2;" horiz-adv-x="697" 
d="M353 683c185 0 315 -144 315 -349c0 -208 -130 -350 -320 -350s-320 141 -320 349c0 211 129 350 325 350zM351 584c-126 0 -206 -96 -206 -249c0 -154 80 -252 205 -252c122 0 201 99 201 252c0 149 -80 249 -200 249zM213 851h125l78 -128h-77z" />
    <glyph glyph-name="Otilde" unicode="&#xd5;" horiz-adv-x="697" 
d="M353 683c185 0 315 -144 315 -349c0 -208 -130 -350 -320 -350s-320 141 -320 349c0 211 129 350 325 350zM351 584c-126 0 -206 -96 -206 -249c0 -154 80 -252 205 -252c122 0 201 99 201 252c0 149 -80 249 -200 249zM464 844h53c-14 -71 -47 -107 -99 -107
c-20 0 -31 3 -92 23c-22 8 -36 11 -46 11c-21 0 -35 -12 -44 -40h-51c12 70 48 108 104 108c26 0 34 -2 100 -29c10 -4 21 -6 31 -6c22 0 36 12 44 40z" />
    <glyph glyph-name="Scaron" unicode="&#x160;" horiz-adv-x="580" 
d="M530 471h-112c-8 80 -55 119 -144 119c-80 0 -128 -35 -128 -94c0 -27 11 -48 31 -59c26 -15 44 -20 138 -42c87 -20 127 -34 161 -56c52 -35 80 -84 80 -145c0 -129 -102 -209 -265 -209c-176 0 -279 87 -281 237h115c3 -95 62 -144 173 -144c89 0 143 40 143 106
c0 34 -15 56 -54 75c-21 11 -31 14 -102 31c-89 22 -154 45 -182 63c-45 29 -69 75 -69 134c0 118 97 195 247 195c154 0 244 -77 249 -211zM129 851h90l64 -81l64 81h89l-100 -128h-107z" />
    <glyph glyph-name="Uacute" unicode="&#xda;" horiz-adv-x="633" 
d="M590 667v-391c0 -104 -11 -151 -49 -201c-47 -62 -118 -91 -223 -91c-113 0 -189 33 -235 103c-30 45 -41 95 -41 191v389h117v-395c0 -71 5 -99 23 -130c23 -40 70 -61 138 -61c64 0 108 19 130 57c17 30 23 65 23 134v395h117zM464 851l-126 -128h-77l78 128h125z" />
    <glyph glyph-name="Ucircumflex" unicode="&#xdb;" horiz-adv-x="633" 
d="M590 667v-391c0 -104 -11 -151 -49 -201c-47 -62 -118 -91 -223 -91c-113 0 -189 33 -235 103c-30 45 -41 95 -41 191v389h117v-395c0 -71 5 -99 23 -130c23 -40 70 -61 138 -61c64 0 108 19 130 57c17 30 23 65 23 134v395h117zM469 723h-89l-64 81l-64 -81h-90l100 128
h107z" />
    <glyph glyph-name="Udieresis" unicode="&#xdc;" horiz-adv-x="633" 
d="M590 667v-391c0 -104 -11 -151 -49 -201c-47 -62 -118 -91 -223 -91c-113 0 -189 33 -235 103c-30 45 -41 95 -41 191v389h117v-395c0 -71 5 -99 23 -130c23 -40 70 -61 138 -61c64 0 108 19 130 57c17 30 23 65 23 134v395h117zM474 835v-99h-107v99h107zM266 835v-99
h-107v99h107z" />
    <glyph glyph-name="Ugrave" unicode="&#xd9;" horiz-adv-x="633" 
d="M590 667v-391c0 -104 -11 -151 -49 -201c-47 -62 -118 -91 -223 -91c-113 0 -189 33 -235 103c-30 45 -41 95 -41 191v389h117v-395c0 -71 5 -99 23 -130c23 -40 70 -61 138 -61c64 0 108 19 130 57c17 30 23 65 23 134v395h117zM185 851h125l78 -128h-77z" />
    <glyph glyph-name="Yacute" unicode="&#xdd;" horiz-adv-x="575" 
d="M596 667l-250 -402v-265h-117v266l-251 401h135l176 -292l176 292h131zM439 851l-126 -128h-77l78 128h125z" />
    <glyph glyph-name="Ydieresis" unicode="&#x178;" horiz-adv-x="575" 
d="M596 667l-250 -402v-265h-117v266l-251 401h135l176 -292l176 292h131zM444 835v-99h-107v99h107zM236 835v-99h-107v99h107z" />
    <glyph glyph-name="Zcaron" unicode="&#x17d;" horiz-adv-x="578" 
d="M553 667v-92l-389 -475h400v-100h-548v97l387 470h-358v100h508zM145 851h90l64 -81l64 81h89l-100 -128h-107z" />
    <glyph glyph-name="aacute" unicode="&#xe1;" horiz-adv-x="502" 
d="M141 333h-100c9 108 81 163 211 163c83 0 148 -23 178 -63c17 -21 23 -46 23 -90c0 -13 0 -13 -1 -65c-1 -16 -1 -43 -2 -83c-1 -31 -1 -53 -1 -56c0 -63 2 -69 27 -69c6 0 11 0 24 2v-75c-32 -8 -49 -11 -69 -11c-46 0 -72 19 -78 58c-46 -40 -99 -58 -171 -58
c-99 0 -162 56 -162 144c0 44 17 82 49 106c36 27 53 31 167 45c102 13 112 18 112 63c0 49 -32 73 -100 73c-69 0 -98 -23 -107 -84zM347 184v57c-26 -14 -38 -17 -113 -27c-49 -6 -71 -14 -86 -29c-13 -12 -20 -31 -20 -51c0 -46 32 -72 88 -72c52 0 101 21 120 51
c9 15 11 27 11 71zM386 693l-113 -141h-70l67 141h116z" />
    <glyph glyph-name="acircumflex" unicode="&#xe2;" horiz-adv-x="502" 
d="M141 333h-100c9 108 81 163 211 163c83 0 148 -23 178 -63c17 -21 23 -46 23 -90c0 -13 0 -13 -1 -65c-1 -16 -1 -43 -2 -83c-1 -31 -1 -53 -1 -56c0 -63 2 -69 27 -69c6 0 11 0 24 2v-75c-32 -8 -49 -11 -69 -11c-46 0 -72 19 -78 58c-46 -40 -99 -58 -171 -58
c-99 0 -162 56 -162 144c0 44 17 82 49 106c36 27 53 31 167 45c102 13 112 18 112 63c0 49 -32 73 -100 73c-69 0 -98 -23 -107 -84zM347 184v57c-26 -14 -38 -17 -113 -27c-49 -6 -71 -14 -86 -29c-13 -12 -20 -31 -20 -51c0 -46 32 -72 88 -72c52 0 101 21 120 51
c9 15 11 27 11 71zM397 552h-90l-51 85l-53 -85h-84l90 141h97z" />
    <glyph glyph-name="adieresis" unicode="&#xe4;" horiz-adv-x="502" 
d="M141 333h-100c9 108 81 163 211 163c83 0 148 -23 178 -63c17 -21 23 -46 23 -90c0 -13 0 -13 -1 -65c-1 -16 -1 -43 -2 -83c-1 -31 -1 -53 -1 -56c0 -63 2 -69 27 -69c6 0 11 0 24 2v-75c-32 -8 -49 -11 -69 -11c-46 0 -72 19 -78 58c-46 -40 -99 -58 -171 -58
c-99 0 -162 56 -162 144c0 44 17 82 49 106c36 27 53 31 167 45c102 13 112 18 112 63c0 49 -32 73 -100 73c-69 0 -98 -23 -107 -84zM347 184v57c-26 -14 -38 -17 -113 -27c-49 -6 -71 -14 -86 -29c-13 -12 -20 -31 -20 -51c0 -46 32 -72 88 -72c52 0 101 21 120 51
c9 15 11 27 11 71zM403 673v-102h-103v102h103zM215 673v-102h-103v102h103z" />
    <glyph glyph-name="agrave" unicode="&#xe0;" horiz-adv-x="502" 
d="M141 333h-100c9 108 81 163 211 163c83 0 148 -23 178 -63c17 -21 23 -46 23 -90c0 -13 0 -13 -1 -65c-1 -16 -1 -43 -2 -83c-1 -31 -1 -53 -1 -56c0 -63 2 -69 27 -69c6 0 11 0 24 2v-75c-32 -8 -49 -11 -69 -11c-46 0 -72 19 -78 58c-46 -40 -99 -58 -171 -58
c-99 0 -162 56 -162 144c0 44 17 82 49 106c36 27 53 31 167 45c102 13 112 18 112 63c0 49 -32 73 -100 73c-69 0 -98 -23 -107 -84zM347 184v57c-26 -14 -38 -17 -113 -27c-49 -6 -71 -14 -86 -29c-13 -12 -20 -31 -20 -51c0 -46 32 -72 88 -72c52 0 101 21 120 51
c9 15 11 27 11 71zM140 693h116l67 -141h-70z" />
    <glyph glyph-name="aring" unicode="&#xe5;" horiz-adv-x="502" 
d="M141 333h-100c9 108 81 163 211 163c83 0 148 -23 178 -63c17 -21 23 -46 23 -90c0 -13 0 -13 -1 -65c-1 -16 -1 -43 -2 -83c-1 -31 -1 -53 -1 -56c0 -63 2 -69 27 -69c6 0 11 0 24 2v-75c-32 -8 -49 -11 -69 -11c-46 0 -72 19 -78 58c-46 -40 -99 -58 -171 -58
c-99 0 -162 56 -162 144c0 44 17 82 49 106c36 27 53 31 167 45c102 13 112 18 112 63c0 49 -32 73 -100 73c-69 0 -98 -23 -107 -84zM347 184v57c-26 -14 -38 -17 -113 -27c-49 -6 -71 -14 -86 -29c-13 -12 -20 -31 -20 -51c0 -46 32 -72 88 -72c52 0 101 21 120 51
c9 15 11 27 11 71zM259 734c53 0 98 -46 98 -100c0 -55 -45 -100 -100 -100s-100 45 -100 101c0 55 45 99 102 99zM258 683c-28 0 -50 -22 -50 -49s22 -49 49 -49s49 22 49 49c0 26 -22 49 -48 49z" />
    <glyph glyph-name="atilde" unicode="&#xe3;" horiz-adv-x="502" 
d="M141 333h-100c9 108 81 163 211 163c83 0 148 -23 178 -63c17 -21 23 -46 23 -90c0 -13 0 -13 -1 -65c-1 -16 -1 -43 -2 -83c-1 -31 -1 -53 -1 -56c0 -63 2 -69 27 -69c6 0 11 0 24 2v-75c-32 -8 -49 -11 -69 -11c-46 0 -72 19 -78 58c-46 -40 -99 -58 -171 -58
c-99 0 -162 56 -162 144c0 44 17 82 49 106c36 27 53 31 167 45c102 13 112 18 112 63c0 49 -32 73 -100 73c-69 0 -98 -23 -107 -84zM347 184v57c-26 -14 -38 -17 -113 -27c-49 -6 -71 -14 -86 -29c-13 -12 -20 -31 -20 -51c0 -46 32 -72 88 -72c52 0 101 21 120 51
c9 15 11 27 11 71zM360 679h51c-9 -71 -42 -111 -90 -111c-18 0 -43 8 -83 24c-21 9 -31 12 -40 12c-20 0 -31 -12 -39 -41h-50c8 69 44 111 94 111c23 0 30 -2 96 -31c7 -3 16 -5 23 -5c20 0 31 12 38 41z" />
    <glyph glyph-name="ccedilla" unicode="&#xe7;" horiz-adv-x="506" 
d="M273 -13l-30 -45c17 4 25 5 36 5c41 0 74 -29 74 -65c0 -52 -42 -85 -109 -85c-30 0 -57 6 -96 20l17 38c22 -11 46 -16 68 -16c27 0 47 16 47 37c0 19 -19 34 -45 34c-11 0 -18 -2 -34 -7l-17 18l48 67c-128 15 -205 109 -205 248c0 158 94 260 240 260
c124 0 204 -65 216 -176h-106c-12 59 -50 91 -109 91c-83 0 -133 -65 -133 -170c0 -106 48 -169 129 -169c65 0 107 39 117 109h105c-13 -116 -99 -194 -213 -194z" />
    <glyph glyph-name="eacute" unicode="&#xe9;" horiz-adv-x="516" 
d="M382 151h102c-25 -103 -107 -164 -219 -164c-143 0 -238 100 -238 249c0 151 98 260 234 260c92 0 168 -48 204 -131c18 -40 26 -86 25 -149h-357c4 -96 51 -150 134 -150c58 0 93 26 115 85zM135 287h249c-7 80 -54 130 -124 130s-114 -46 -125 -130zM392 693l-113 -141
h-70l67 141h116z" />
    <glyph glyph-name="ecircumflex" unicode="&#xea;" horiz-adv-x="516" 
d="M382 151h102c-25 -103 -107 -164 -219 -164c-143 0 -238 100 -238 249c0 151 98 260 234 260c92 0 168 -48 204 -131c18 -40 26 -86 25 -149h-357c4 -96 51 -150 134 -150c58 0 93 26 115 85zM135 287h249c-7 80 -54 130 -124 130s-114 -46 -125 -130zM400 552h-90
l-51 85l-53 -85h-84l90 141h97z" />
    <glyph glyph-name="edieresis" unicode="&#xeb;" horiz-adv-x="516" 
d="M382 151h102c-25 -103 -107 -164 -219 -164c-143 0 -238 100 -238 249c0 151 98 260 234 260c92 0 168 -48 204 -131c18 -40 26 -86 25 -149h-357c4 -96 51 -150 134 -150c58 0 93 26 115 85zM135 287h249c-7 80 -54 130 -124 130s-114 -46 -125 -130zM406 673v-102h-103
v102h103zM218 673v-102h-103v102h103z" />
    <glyph glyph-name="egrave" unicode="&#xe8;" horiz-adv-x="516" 
d="M382 151h102c-25 -103 -107 -164 -219 -164c-143 0 -238 100 -238 249c0 151 98 260 234 260c92 0 168 -48 204 -131c18 -40 26 -86 25 -149h-357c4 -96 51 -150 134 -150c58 0 93 26 115 85zM135 287h249c-7 80 -54 130 -124 130s-114 -46 -125 -130zM143 693h116
l67 -141h-70z" />
    <glyph glyph-name="iacute" unicode="&#xed;" horiz-adv-x="201" 
d="M154 483v-483h-107v483h107zM236 693l-113 -141h-70l67 141h116z" />
    <glyph glyph-name="icircumflex" unicode="&#xee;" horiz-adv-x="201" 
d="M153 483v-483h-107v483h107zM223 552h-84l-38 85l-39 -85h-84l77 141h93z" />
    <glyph glyph-name="idieresis" unicode="&#xef;" horiz-adv-x="201" 
d="M154 483v-483h-107v483h107zM212 673v-102h-91v102h91zM79 673v-102h-91v102h91z" />
    <glyph glyph-name="igrave" unicode="&#xec;" horiz-adv-x="201" 
d="M154 483v-483h-107v483h107zM-34 693h116l67 -141h-70z" />
    <glyph glyph-name="ntilde" unicode="&#xf1;" horiz-adv-x="517" 
d="M147 483v-71c44 59 91 84 161 84c61 0 115 -26 140 -68c18 -29 24 -59 24 -120v-308h-107v281c0 42 -2 60 -9 79c-11 29 -43 47 -83 47c-47 0 -87 -24 -104 -62c-11 -24 -15 -52 -15 -103v-242h-107v483h100zM366 679h51c-9 -71 -42 -111 -90 -111c-18 0 -43 8 -83 24
c-21 9 -31 12 -40 12c-20 0 -31 -12 -39 -41h-50c8 69 44 111 94 111c23 0 30 -2 96 -31c7 -3 16 -5 23 -5c20 0 31 12 38 41z" />
    <glyph glyph-name="oacute" unicode="&#xf3;" horiz-adv-x="543" 
d="M275 496c146 0 240 -100 240 -255c0 -156 -94 -254 -243 -254s-245 100 -245 254c0 156 97 255 248 255zM273 411c-86 0 -138 -64 -138 -170c0 -105 52 -169 137 -169c84 0 135 64 135 170c0 104 -52 169 -134 169zM403 693l-113 -141h-70l67 141h116z" />
    <glyph glyph-name="ocircumflex" unicode="&#xf4;" horiz-adv-x="543" 
d="M275 496c146 0 240 -100 240 -255c0 -156 -94 -254 -243 -254s-245 100 -245 254c0 156 97 255 248 255zM273 411c-86 0 -138 -64 -138 -170c0 -105 52 -169 137 -169c84 0 135 64 135 170c0 104 -52 169 -134 169zM410 552h-90l-51 85l-53 -85h-84l90 141h97z" />
    <glyph glyph-name="odieresis" unicode="&#xf6;" horiz-adv-x="543" 
d="M275 496c146 0 240 -100 240 -255c0 -156 -94 -254 -243 -254s-245 100 -245 254c0 156 97 255 248 255zM273 411c-86 0 -138 -64 -138 -170c0 -105 52 -169 137 -169c84 0 135 64 135 170c0 104 -52 169 -134 169zM416 673v-102h-103v102h103zM228 673v-102h-103v102
h103z" />
    <glyph glyph-name="ograve" unicode="&#xf2;" horiz-adv-x="543" 
d="M275 496c146 0 240 -100 240 -255c0 -156 -94 -254 -243 -254s-245 100 -245 254c0 156 97 255 248 255zM273 411c-86 0 -138 -64 -138 -170c0 -105 52 -169 137 -169c84 0 135 64 135 170c0 104 -52 169 -134 169zM150 693h116l67 -141h-70z" />
    <glyph glyph-name="otilde" unicode="&#xf5;" horiz-adv-x="543" 
d="M275 496c146 0 240 -100 240 -255c0 -156 -94 -254 -243 -254s-245 100 -245 254c0 156 97 255 248 255zM273 411c-86 0 -138 -64 -138 -170c0 -105 52 -169 137 -169c84 0 135 64 135 170c0 104 -52 169 -134 169zM373 679h51c-9 -71 -42 -111 -90 -111
c-18 0 -43 8 -83 24c-21 9 -31 12 -40 12c-20 0 -31 -12 -39 -41h-50c8 69 44 111 94 111c23 0 30 -2 96 -31c7 -3 16 -5 23 -5c20 0 31 12 38 41z" />
    <glyph glyph-name="scaron" unicode="&#x161;" horiz-adv-x="475" 
d="M427 343h-102c-7 53 -38 75 -104 75c-55 0 -87 -21 -87 -56c0 -36 19 -47 123 -69c72 -15 110 -29 140 -50s48 -57 48 -98c0 -97 -82 -158 -211 -158c-137 0 -211 57 -217 168h102c7 -61 44 -89 117 -89c63 0 104 28 104 70c0 36 -22 50 -115 72c-98 22 -111 26 -139 42
c-37 21 -58 58 -58 103c0 89 74 143 197 143c75 0 134 -21 168 -60c21 -24 30 -48 34 -93zM92 693h90l51 -85l53 85h84l-90 -141h-97z" />
    <glyph glyph-name="uacute" unicode="&#xfa;" horiz-adv-x="516" 
d="M469 483v-483h-100v72c-44 -59 -92 -85 -160 -85c-55 0 -103 20 -132 55c-24 29 -33 66 -33 131v310h107v-276c0 -56 3 -78 14 -95c14 -23 42 -36 78 -36c45 0 82 22 103 62c12 22 16 51 16 108v237h107zM390 693l-113 -141h-70l67 141h116z" />
    <glyph glyph-name="ucircumflex" unicode="&#xfb;" horiz-adv-x="516" 
d="M469 483v-483h-100v72c-44 -59 -92 -85 -160 -85c-55 0 -103 20 -132 55c-24 29 -33 66 -33 131v310h107v-276c0 -56 3 -78 14 -95c14 -23 42 -36 78 -36c45 0 82 22 103 62c12 22 16 51 16 108v237h107zM398 552h-90l-51 85l-53 -85h-84l90 141h97z" />
    <glyph glyph-name="udieresis" unicode="&#xfc;" horiz-adv-x="516" 
d="M469 483v-483h-100v72c-44 -59 -92 -85 -160 -85c-55 0 -103 20 -132 55c-24 29 -33 66 -33 131v310h107v-276c0 -56 3 -78 14 -95c14 -23 42 -36 78 -36c45 0 82 22 103 62c12 22 16 51 16 108v237h107zM402 673v-102h-103v102h103zM214 673v-102h-103v102h103z" />
    <glyph glyph-name="ugrave" unicode="&#xf9;" horiz-adv-x="516" 
d="M469 483v-483h-100v72c-44 -59 -92 -85 -160 -85c-55 0 -103 20 -132 55c-24 29 -33 66 -33 131v310h107v-276c0 -56 3 -78 14 -95c14 -23 42 -36 78 -36c45 0 82 22 103 62c12 22 16 51 16 108v237h107zM131 693h116l67 -141h-70z" />
    <glyph glyph-name="yacute" unicode="&#xfd;" horiz-adv-x="461" 
d="M469 483l-179 -474c-35 -95 -47 -119 -68 -145c-27 -34 -62 -49 -112 -49c-19 0 -36 1 -73 6v89c30 -4 43 -6 55 -6c26 0 43 11 55 36c14 29 24 57 27 76l-184 467h117l129 -360l122 360h111zM365 693l-113 -141h-70l67 141h116z" />
    <glyph glyph-name="ydieresis" unicode="&#xff;" horiz-adv-x="461" 
d="M469 483l-179 -474c-35 -95 -47 -119 -68 -145c-27 -34 -62 -49 -112 -49c-19 0 -36 1 -73 6v89c30 -4 43 -6 55 -6c26 0 43 11 55 36c14 29 24 57 27 76l-184 467h117l129 -360l122 360h111zM375 673v-102h-103v102h103zM187 673v-102h-103v102h103z" />
    <glyph glyph-name="zcaron" unicode="&#x17e;" horiz-adv-x="439" 
d="M425 483v-74l-272 -324h287v-85h-427v81l267 317h-248v85h393zM89 693h90l51 -85l53 85h84l-90 -141h-97z" />
    <glyph glyph-name="Abreve" unicode="&#x102;" horiz-adv-x="638" 
d="M382 667l256 -667h-125l-64 177h-263l-66 -177h-121l258 667h125zM419 266l-102 278l-101 -278h203zM400 851h69c-11 -86 -64 -130 -153 -130s-143 48 -148 130h69c10 -43 36 -63 83 -63c46 0 68 17 80 63z" />
    <glyph glyph-name="Aogonek" unicode="&#x104;" horiz-adv-x="638" 
d="M382 667l257 -667c-39 -29 -55 -53 -55 -81s26 -47 63 -47c11 0 20 2 37 7v-53c-25 -8 -38 -10 -59 -10c-66 0 -110 35 -110 86c0 36 17 63 61 98h-62l-64 177h-264l-65 -177h-122l258 667h125zM419 266l-101 278l-102 -278h203z" />
    <glyph glyph-name="Cacute" unicode="&#x106;" horiz-adv-x="650" 
d="M513 255h116c-4 -66 -27 -126 -66 -174c-55 -66 -127 -97 -224 -97c-187 0 -311 139 -311 350c0 206 130 349 317 349c90 0 161 -29 216 -88c38 -41 59 -89 63 -140h-116c-16 81 -78 129 -165 129c-71 0 -124 -30 -158 -89c-26 -44 -40 -102 -40 -161
c0 -154 76 -251 197 -251c98 0 157 60 171 172zM487 851l-126 -128h-77l78 128h125z" />
    <glyph glyph-name="Ccaron" unicode="&#x10c;" horiz-adv-x="650" 
d="M513 255h116c-4 -66 -27 -126 -66 -174c-55 -66 -127 -97 -224 -97c-187 0 -311 139 -311 350c0 206 130 349 317 349c90 0 161 -29 216 -88c38 -41 59 -89 63 -140h-116c-16 81 -78 129 -165 129c-71 0 -124 -30 -158 -89c-26 -44 -40 -102 -40 -161
c0 -154 76 -251 197 -251c98 0 157 60 171 172zM188 851h90l64 -81l64 81h89l-100 -128h-107z" />
    <glyph glyph-name="Dcaron" unicode="&#x10e;" horiz-adv-x="653" 
d="M52 667h254c100 0 164 -20 218 -68c64 -57 99 -147 99 -254c0 -117 -32 -208 -94 -271c-55 -54 -112 -74 -216 -74h-261v667zM169 567v-467h128c80 0 117 12 151 49c38 43 58 107 58 190c0 149 -72 228 -207 228h-130zM144 851h90l64 -81l64 81h89l-100 -128h-107z" />
    <glyph glyph-name="Ecaron" unicode="&#x11a;" horiz-adv-x="562" 
d="M533 667v-100h-364v-176h337v-95h-337v-196h370v-100h-487v667h481zM142 851h90l64 -81l64 81h89l-100 -128h-107z" />
    <glyph glyph-name="Edotaccent" unicode="&#x116;" horiz-adv-x="562" 
d="M533 667v-100h-364v-176h337v-95h-337v-196h370v-100h-487v667h481zM349 835v-99h-107v99h107z" />
    <glyph glyph-name="Eogonek" unicode="&#x118;" horiz-adv-x="562" 
d="M533 667v-100h-364v-176h337v-95h-337v-196h370v-100c-38 -29 -55 -54 -55 -81c0 -28 26 -47 63 -47c11 0 20 2 37 7v-53c-25 -8 -38 -10 -59 -10c-66 0 -110 34 -110 87c0 35 17 62 61 97h-424v667h481z" />
    <glyph glyph-name="Gbreve" unicode="&#x11e;" horiz-adv-x="690" 
d="M645 355v-355h-75l-18 79c-53 -65 -119 -95 -207 -95c-188 0 -317 140 -317 344c0 211 133 355 327 355c153 0 269 -93 282 -228h-114c-14 79 -79 129 -170 129c-129 0 -208 -97 -208 -254c0 -155 79 -247 212 -247c73 0 128 30 160 88c14 26 20 51 22 95h-180v89h286z
M440 851h69c-11 -86 -64 -130 -153 -130s-143 48 -148 130h69c10 -43 36 -63 83 -63c46 0 68 17 80 63z" />
    <glyph glyph-name="Idotaccent" unicode="&#x130;" horiz-adv-x="221" 
d="M169 667v-667h-117v667h117zM164 835v-99h-107v99h107z" />
    <glyph glyph-name="Lacute" unicode="&#x139;" horiz-adv-x="515" 
d="M509 100v-100h-457v667h117v-567h340zM269 851l-126 -128h-77l78 128h125z" />
    <glyph glyph-name="Lcaron" unicode="&#x13d;" horiz-adv-x="515" 
d="M509 100v-100h-457v667h117v-567h340zM376 667v-65c0 -70 -29 -106 -91 -113v37c28 6 42 24 44 55h-44v86h91z" />
    <glyph glyph-name="Nacute" unicode="&#x143;" horiz-adv-x="646" 
d="M595 667v-667h-121l-313 498l2 -498h-111v667h121l313 -499l-2 499h111zM472 851l-126 -128h-77l78 128h125z" />
    <glyph glyph-name="Ncaron" unicode="&#x147;" horiz-adv-x="646" 
d="M595 667v-667h-121l-313 498l2 -498h-111v667h121l313 -499l-2 499h111zM176 851h90l64 -81l64 81h89l-100 -128h-107z" />
    <glyph glyph-name="Ohungarumlaut" unicode="&#x150;" horiz-adv-x="697" 
d="M353 683c185 0 315 -144 315 -349c0 -208 -130 -350 -320 -350s-320 141 -320 349c0 211 129 350 325 350zM351 584c-126 0 -206 -96 -206 -249c0 -154 80 -252 205 -252c122 0 201 99 201 252c0 149 -80 249 -200 249zM549 851l-86 -127h-72l54 127h104zM386 851
l-86 -127h-72l53 127h105z" />
    <glyph glyph-name="Racute" unicode="&#x154;" horiz-adv-x="648" 
d="M52 667h316c66 0 104 -8 140 -30c54 -32 84 -87 84 -155c0 -81 -39 -140 -110 -165c30 -5 53 -21 72 -48c21 -37 23 -46 33 -165c5 -53 11 -79 23 -95l7 -9h-126c-13 24 -15 36 -21 134c-4 62 -21 105 -49 122c-19 13 -52 19 -97 19h-155v-275h-117v667zM169 570v-208
h154c58 0 87 5 110 20c27 18 42 47 42 86c0 43 -20 77 -55 91c-18 7 -47 11 -82 11h-169zM440 851l-126 -128h-77l78 128h125z" />
    <glyph glyph-name="Rcaron" unicode="&#x158;" horiz-adv-x="648" 
d="M52 667h316c66 0 104 -8 140 -30c54 -32 84 -87 84 -155c0 -81 -39 -140 -110 -165c30 -5 53 -21 72 -48c21 -37 23 -46 33 -165c5 -53 11 -79 23 -95l7 -9h-126c-13 24 -15 36 -21 134c-4 62 -21 105 -49 122c-19 13 -52 19 -97 19h-155v-275h-117v667zM169 570v-208
h154c58 0 87 5 110 20c27 18 42 47 42 86c0 43 -20 77 -55 91c-18 7 -47 11 -82 11h-169zM148 851h90l64 -81l64 81h89l-100 -128h-107z" />
    <glyph glyph-name="Sacute" unicode="&#x15a;" horiz-adv-x="580" 
d="M530 471h-112c-8 80 -55 119 -144 119c-80 0 -128 -35 -128 -94c0 -27 11 -48 31 -59c26 -15 44 -20 138 -42c87 -20 127 -34 161 -56c52 -35 80 -84 80 -145c0 -129 -102 -209 -265 -209c-176 0 -279 87 -281 237h115c3 -95 62 -144 173 -144c89 0 143 40 143 106
c0 34 -15 56 -54 75c-21 11 -31 14 -102 31c-89 22 -154 45 -182 63c-45 29 -69 75 -69 134c0 118 97 195 247 195c154 0 244 -77 249 -211zM431 851l-126 -128h-77l78 128h125z" />
    <glyph glyph-name="Scedilla" unicode="&#x15e;" horiz-adv-x="580" 
d="M306 -14l-30 -44c18 4 25 5 34 5c44 0 78 -28 78 -66c0 -51 -44 -86 -111 -86c-30 0 -57 6 -96 20l17 38c23 -11 46 -16 68 -16c27 0 47 16 47 38c0 20 -19 35 -46 35c-10 0 -18 -2 -33 -8l-17 18l47 66c-160 9 -254 97 -254 236h115c3 -95 62 -144 173 -144
c89 0 143 40 143 106c0 34 -15 56 -54 75c-21 11 -31 14 -102 31c-88 22 -154 45 -182 63c-45 29 -69 75 -69 134c0 118 97 195 247 195c154 0 244 -77 249 -211h-112c-8 80 -55 119 -144 119c-80 0 -128 -35 -128 -94c0 -27 11 -48 31 -59c26 -14 45 -20 138 -42
c87 -20 127 -34 161 -56c52 -35 80 -84 80 -145c0 -125 -94 -204 -250 -208z" />
    <glyph glyph-name="Scedilla" unicode="&#xf6c1;" horiz-adv-x="580" 
d="M306 -14l-30 -44c18 4 25 5 34 5c44 0 78 -28 78 -66c0 -51 -44 -86 -111 -86c-30 0 -57 6 -96 20l17 38c23 -11 46 -16 68 -16c27 0 47 16 47 38c0 20 -19 35 -46 35c-10 0 -18 -2 -33 -8l-17 18l47 66c-160 9 -254 97 -254 236h115c3 -95 62 -144 173 -144
c89 0 143 40 143 106c0 34 -15 56 -54 75c-21 11 -31 14 -102 31c-88 22 -154 45 -182 63c-45 29 -69 75 -69 134c0 118 97 195 247 195c154 0 244 -77 249 -211h-112c-8 80 -55 119 -144 119c-80 0 -128 -35 -128 -94c0 -27 11 -48 31 -59c26 -14 45 -20 138 -42
c87 -20 127 -34 161 -56c52 -35 80 -84 80 -145c0 -125 -94 -204 -250 -208z" />
    <glyph glyph-name="Tcaron" unicode="&#x164;" horiz-adv-x="526" 
d="M534 667v-100h-213v-567h-117v567h-213v100h543zM109 851h90l64 -81l64 81h89l-100 -128h-107z" />
    <glyph glyph-name="Uring" unicode="&#x16e;" horiz-adv-x="633" 
d="M590 667v-391c0 -104 -11 -151 -49 -201c-47 -62 -118 -91 -223 -91c-113 0 -189 33 -235 103c-30 45 -41 95 -41 191v389h117v-395c0 -71 5 -99 23 -130c23 -40 70 -61 138 -61c64 0 108 19 130 57c17 30 23 65 23 134v395h117zM318 913c55 0 102 -47 102 -103
c0 -57 -47 -103 -103 -103c-58 0 -104 46 -104 104c0 56 47 102 105 102zM317 860c-28 0 -51 -22 -51 -50c0 -27 23 -50 50 -50c28 0 51 23 51 50s-23 50 -50 50z" />
    <glyph glyph-name="Uhungarumlaut" unicode="&#x170;" horiz-adv-x="633" 
d="M590 667v-391c0 -104 -11 -151 -49 -201c-47 -62 -118 -91 -223 -91c-113 0 -189 33 -235 103c-30 45 -41 95 -41 191v389h117v-395c0 -71 5 -99 23 -130c23 -40 70 -61 138 -61c64 0 108 19 130 57c17 30 23 65 23 134v395h117zM513 851l-86 -127h-72l54 127h104z
M350 851l-86 -127h-72l53 127h105z" />
    <glyph glyph-name="Zacute" unicode="&#x179;" horiz-adv-x="578" 
d="M553 667v-92l-389 -475h400v-100h-548v97l387 470h-358v100h508zM442 851l-126 -128h-77l78 128h125z" />
    <glyph glyph-name="Zdotaccent" unicode="&#x17b;" horiz-adv-x="578" 
d="M553 667v-92l-389 -475h400v-100h-548v97l387 470h-358v100h508zM353 835v-99h-107v99h107z" />
    <glyph glyph-name="Amacron" unicode="&#x100;" horiz-adv-x="638" 
d="M382 667l256 -667h-125l-64 177h-263l-66 -177h-121l258 667h125zM419 266l-102 278l-101 -278h203zM482 817v-63h-327v63h327z" />
    <glyph glyph-name="Tcommaaccent" unicode="&#x162;" horiz-adv-x="526" 
d="M534 667v-100h-213v-567h-117v567h-213v100h543zM309 -60v-65c0 -70 -29 -106 -91 -112v37c28 5 42 23 44 54h-44v86h91z" />
    <glyph glyph-name="Tcommaaccent" unicode="&#x21a;" horiz-adv-x="526" 
d="M534 667v-100h-213v-567h-117v567h-213v100h543zM309 -60v-65c0 -70 -29 -106 -91 -112v37c28 5 42 23 44 54h-44v86h91z" />
    <glyph glyph-name="Emacron" unicode="&#x112;" horiz-adv-x="562" 
d="M533 667v-100h-364v-176h337v-95h-337v-196h370v-100h-487v667h481zM457 817v-63h-327v63h327z" />
    <glyph glyph-name="Imacron" unicode="&#x12a;" horiz-adv-x="221" 
d="M169 667v-667h-117v667h117zM237 817v-63h-253v63h253z" />
    <glyph glyph-name="Iogonek" unicode="&#x12e;" horiz-adv-x="221" 
d="M169 667v-667c-34 -24 -52 -52 -52 -81c0 -28 20 -46 54 -46c11 0 18 1 33 6v-53c-23 -8 -36 -10 -55 -10c-60 0 -101 36 -101 89c0 35 19 66 59 95h-55v667h117z" />
    <glyph glyph-name="Kcommaaccent" unicode="&#x136;" horiz-adv-x="606" 
d="M612 667l-267 -266l284 -401h-145l-219 319l-96 -94v-225h-117v667h117v-308l295 308h148zM360 -60v-65c0 -70 -29 -106 -91 -112v37c28 5 42 23 44 54h-44v86h91z" />
    <glyph glyph-name="Lcommaaccent" unicode="&#x13b;" horiz-adv-x="515" 
d="M509 100v-100h-457v667h117v-567h340zM326 -60v-65c0 -70 -29 -106 -91 -112v37c28 5 42 23 44 54h-44v86h91z" />
    <glyph glyph-name="Ncommaaccent" unicode="&#x145;" horiz-adv-x="646" 
d="M595 667v-667h-121l-313 498l2 -498h-111v667h121l313 -499l-2 499h111zM366 -60v-65c0 -70 -29 -106 -91 -112v37c28 5 42 23 44 54h-44v86h91z" />
    <glyph glyph-name="Omacron" unicode="&#x14c;" horiz-adv-x="697" 
d="M353 683c185 0 315 -144 315 -349c0 -208 -130 -350 -320 -350s-320 141 -320 349c0 211 129 350 325 350zM351 584c-126 0 -206 -96 -206 -249c0 -154 80 -252 205 -252c122 0 201 99 201 252c0 149 -80 249 -200 249zM512 817v-63h-327v63h327z" />
    <glyph glyph-name="Rcommaaccent" unicode="&#x156;" horiz-adv-x="648" 
d="M52 667h316c66 0 104 -8 140 -30c54 -32 84 -87 84 -155c0 -81 -39 -140 -110 -165c30 -5 53 -21 72 -48c21 -37 23 -46 33 -165c5 -53 11 -79 23 -95l7 -9h-126c-13 24 -15 36 -21 134c-4 62 -21 105 -49 122c-19 13 -52 19 -97 19h-155v-275h-117v667zM169 570v-208
h154c58 0 87 5 110 20c27 18 42 47 42 86c0 43 -20 77 -55 91c-18 7 -47 11 -82 11h-169zM371 -60v-65c0 -70 -29 -106 -91 -112v37c28 5 42 23 44 54h-44v86h91z" />
    <glyph glyph-name="Gcommaaccent" unicode="&#x122;" horiz-adv-x="690" 
d="M645 355v-355h-75l-18 79c-53 -65 -119 -95 -207 -95c-188 0 -317 140 -317 344c0 211 133 355 327 355c153 0 269 -93 282 -228h-114c-14 79 -79 129 -170 129c-129 0 -208 -97 -208 -254c0 -155 79 -247 212 -247c73 0 128 30 160 88c14 26 20 51 22 95h-180v89h286z
M385 -60v-65c0 -70 -29 -106 -91 -112v37c28 5 42 23 44 54h-44v86h91z" />
    <glyph glyph-name="Umacron" unicode="&#x16a;" horiz-adv-x="633" 
d="M590 667v-391c0 -104 -11 -151 -49 -201c-47 -62 -118 -91 -223 -91c-113 0 -189 33 -235 103c-30 45 -41 95 -41 191v389h117v-395c0 -71 5 -99 23 -130c23 -40 70 -61 138 -61c64 0 108 19 130 57c17 30 23 65 23 134v395h117zM480 817v-63h-327v63h327z" />
    <glyph glyph-name="Uogonek" unicode="&#x172;" horiz-adv-x="633" 
d="M507 -118v-52c-25 -8 -38 -10 -59 -10c-67 0 -110 35 -110 88c0 32 14 56 48 81c-30 -4 -45 -5 -70 -5c-111 0 -187 34 -233 103c-30 45 -41 95 -41 191v389h117v-395c0 -71 5 -99 23 -130c23 -40 70 -61 138 -61c64 0 108 19 130 57c17 30 23 65 23 134v395h117v-391
c0 -92 -8 -133 -34 -178c-21 -36 -37 -52 -88 -86c-41 -28 -61 -57 -61 -89c0 -28 26 -47 63 -47c11 0 20 1 37 6z" />
    <glyph glyph-name="abreve" unicode="&#x103;" horiz-adv-x="502" 
d="M141 333h-100c9 108 81 163 211 163c83 0 148 -23 178 -63c17 -21 23 -46 23 -90c0 -13 0 -13 -1 -65c-1 -16 -1 -43 -2 -83c-1 -31 -1 -53 -1 -56c0 -63 2 -69 27 -69c6 0 11 0 24 2v-75c-32 -8 -49 -11 -69 -11c-46 0 -72 19 -78 58c-46 -40 -99 -58 -171 -58
c-99 0 -162 56 -162 144c0 44 17 82 49 106c36 27 53 31 167 45c102 13 112 18 112 63c0 49 -32 73 -100 73c-69 0 -98 -23 -107 -84zM347 184v57c-26 -14 -38 -17 -113 -27c-49 -6 -71 -14 -86 -29c-13 -12 -20 -31 -20 -51c0 -46 32 -72 88 -72c52 0 101 21 120 51
c9 15 11 27 11 71zM324 693h69c-10 -93 -57 -141 -138 -141c-82 0 -131 51 -135 141h69c8 -50 30 -74 69 -74c38 0 56 20 66 74z" />
    <glyph glyph-name="aogonek" unicode="&#x105;" horiz-adv-x="502" 
d="M500 -3l-9 -2c-12 -3 -13 -3 -22 -5c-31 -25 -43 -43 -43 -66c0 -29 25 -48 63 -48c12 0 20 1 37 6v-52c-25 -8 -37 -10 -59 -10c-66 0 -110 34 -110 86c0 34 16 61 50 82c-29 4 -50 26 -54 56c-46 -40 -99 -58 -171 -58c-99 0 -162 56 -162 144c0 44 17 82 49 106
c36 27 53 31 167 45c102 13 112 18 112 63c0 49 -32 73 -100 73c-69 0 -98 -23 -107 -84h-100c9 108 81 163 211 163c83 0 148 -23 178 -63c17 -21 23 -46 23 -90c0 -13 0 -13 -1 -65c-1 -16 -1 -43 -2 -83c-1 -31 -1 -53 -1 -56c0 -63 2 -69 27 -69c6 0 11 0 24 2v-75z
M347 184v57c-26 -14 -38 -17 -113 -27c-49 -6 -71 -14 -86 -29c-13 -12 -20 -31 -20 -51c0 -46 32 -72 88 -72c52 0 101 21 120 51c9 15 11 27 11 71z" />
    <glyph glyph-name="cacute" unicode="&#x107;" horiz-adv-x="506" 
d="M381 181h105c-16 -121 -99 -194 -221 -194c-145 0 -238 98 -238 250c0 157 94 259 240 259c124 0 204 -65 216 -176h-106c-12 59 -50 91 -109 91c-83 0 -133 -64 -133 -170c0 -105 48 -168 129 -168c65 0 107 39 117 108zM400 693l-113 -141h-70l67 141h116z" />
    <glyph glyph-name="ccaron" unicode="&#x10d;" horiz-adv-x="506" 
d="M381 181h105c-16 -121 -99 -194 -221 -194c-145 0 -238 98 -238 250c0 157 94 259 240 259c124 0 204 -65 216 -176h-106c-12 59 -50 91 -109 91c-83 0 -133 -64 -133 -170c0 -105 48 -168 129 -168c65 0 107 39 117 108zM130 693h90l51 -85l53 85h84l-90 -141h-97z" />
    <glyph glyph-name="dcaron" unicode="&#x10f;" horiz-adv-x="663" 
d="M505 667v-667h-100v66c-33 -53 -84 -79 -155 -79c-137 0 -223 99 -223 256c0 155 85 253 219 253c68 0 122 -27 152 -76v247h107zM269 411c-84 0 -134 -63 -134 -168s52 -171 134 -171c83 0 133 64 133 169s-51 170 -133 170zM656 667v-65c0 -70 -29 -106 -91 -113v37
c28 6 42 24 44 55h-44v86h91z" />
    <glyph glyph-name="ecaron" unicode="&#x11b;" horiz-adv-x="516" 
d="M382 151h102c-25 -103 -107 -164 -219 -164c-143 0 -238 100 -238 249c0 151 98 260 234 260c92 0 168 -48 204 -131c18 -40 26 -86 25 -149h-357c4 -96 51 -150 134 -150c58 0 93 26 115 85zM135 287h249c-7 80 -54 130 -124 130s-114 -46 -125 -130zM122 693h90l51 -85
l53 85h84l-90 -141h-97z" />
    <glyph glyph-name="edotaccent" unicode="&#x117;" horiz-adv-x="516" 
d="M382 151h102c-25 -103 -107 -164 -219 -164c-143 0 -238 100 -238 249c0 151 98 260 234 260c92 0 168 -48 204 -131c18 -40 26 -86 25 -149h-357c4 -96 51 -150 134 -150c58 0 93 26 115 85zM135 287h249c-7 80 -54 130 -124 130s-114 -46 -125 -130zM311 673v-102h-103
v102h103z" />
    <glyph glyph-name="eogonek" unicode="&#x119;" horiz-adv-x="516" 
d="M430 -111v-53c-25 -8 -38 -10 -59 -10c-66 0 -110 35 -110 87c0 30 13 53 44 76c-16 -2 -24 -2 -38 -2c-145 0 -240 99 -240 249c0 151 98 260 234 260c93 0 168 -48 204 -131c18 -40 26 -86 26 -149h-357c3 -97 51 -151 133 -151c58 0 94 26 115 86h102
c-14 -58 -40 -94 -96 -137c-39 -31 -58 -59 -58 -84c0 -29 25 -48 63 -48c11 0 20 2 37 7zM135 287h249c-7 80 -54 130 -124 130c-69 0 -114 -46 -125 -130z" />
    <glyph glyph-name="gbreve" unicode="&#x11f;" horiz-adv-x="541" 
d="M493 483v-427c0 -79 -8 -118 -32 -156c-36 -59 -104 -89 -201 -89c-131 0 -204 49 -217 148h108c10 -49 45 -72 112 -72c88 0 127 43 127 142v57c-34 -55 -83 -81 -153 -81c-128 0 -210 94 -210 241c0 150 86 250 216 250c67 0 111 -24 150 -81v68h100zM264 411
c-80 0 -129 -60 -129 -158c0 -102 48 -163 126 -163c79 0 129 63 129 163c0 97 -49 158 -126 158zM335 693h69c-10 -93 -57 -141 -138 -141c-82 0 -131 51 -135 141h69c8 -50 30 -74 69 -74c38 0 56 20 66 74z" />
    <glyph glyph-name="lacute" unicode="&#x13a;" horiz-adv-x="201" 
d="M154 667v-667h-107v667h107zM229 851l-103 -128h-70l58 128h115z" />
    <glyph glyph-name="lcaron" unicode="&#x13e;" horiz-adv-x="311" 
d="M154 667v-667h-107v667h107zM304 667v-65c0 -70 -29 -106 -91 -113v37c28 6 42 24 44 55h-44v86h91z" />
    <glyph glyph-name="nacute" unicode="&#x144;" horiz-adv-x="517" 
d="M147 483v-71c44 59 91 84 161 84c61 0 115 -26 140 -68c18 -29 24 -59 24 -120v-308h-107v281c0 42 -2 60 -9 79c-11 29 -43 47 -83 47c-47 0 -87 -24 -104 -62c-11 -24 -15 -52 -15 -103v-242h-107v483h100zM393 693l-113 -141h-70l67 141h116z" />
    <glyph glyph-name="ncaron" unicode="&#x148;" horiz-adv-x="517" 
d="M147 483v-71c44 59 91 84 161 84c61 0 115 -26 140 -68c18 -29 24 -59 24 -120v-308h-107v281c0 42 -2 60 -9 79c-11 29 -43 47 -83 47c-47 0 -87 -24 -104 -62c-11 -24 -15 -52 -15 -103v-242h-107v483h100zM119 693h90l51 -85l53 85h84l-90 -141h-97z" />
    <glyph glyph-name="ohungarumlaut" unicode="&#x151;" horiz-adv-x="543" 
d="M275 496c146 0 240 -100 240 -255c0 -156 -94 -254 -243 -254s-245 100 -245 254c0 156 97 255 248 255zM273 411c-86 0 -138 -64 -138 -170c0 -105 52 -169 137 -169c84 0 135 64 135 170c0 104 -52 169 -134 169zM446 693l-76 -141h-60l40 141h96zM299 693l-76 -141
h-60l40 141h96z" />
    <glyph glyph-name="racute" unicode="&#x155;" horiz-adv-x="318" 
d="M330 493v-103c-18 2 -27 3 -38 3c-38 0 -69 -12 -94 -36c-34 -33 -44 -70 -44 -163v-194h-107v483h100v-96c39 74 88 107 164 107c3 0 10 0 19 -1zM315 693l-113 -141h-70l67 141h116z" />
    <glyph glyph-name="sacute" unicode="&#x15b;" horiz-adv-x="475" 
d="M427 343h-102c-7 53 -38 75 -104 75c-55 0 -87 -21 -87 -56c0 -36 19 -47 123 -69c72 -15 110 -29 140 -50s48 -57 48 -98c0 -97 -82 -158 -211 -158c-137 0 -211 57 -217 168h102c7 -61 44 -89 117 -89c63 0 104 28 104 70c0 36 -22 50 -115 72c-98 22 -111 26 -139 42
c-37 21 -58 58 -58 103c0 89 74 143 197 143c75 0 134 -21 168 -60c21 -24 30 -48 34 -93zM362 693l-113 -141h-70l67 141h116z" />
    <glyph glyph-name="scommaaccent" unicode="&#x219;" horiz-adv-x="475" 
d="M427 343h-102c-7 53 -38 75 -104 75c-55 0 -87 -21 -87 -56c0 -36 19 -47 123 -69c72 -15 110 -29 140 -50s48 -57 48 -98c0 -97 -82 -158 -211 -158c-137 0 -211 57 -217 168h102c7 -61 44 -89 117 -89c63 0 104 28 104 70c0 36 -22 50 -115 72c-98 22 -111 26 -139 42
c-37 21 -58 58 -58 103c0 89 74 143 197 143c75 0 134 -21 168 -60c21 -24 30 -48 34 -93zM270 -53v-65c0 -70 -29 -106 -91 -112v37c28 5 42 23 44 54h-44v86h91z" />
    <glyph glyph-name="tcaron" unicode="&#x165;" horiz-adv-x="329" 
d="M266 483v-78h-97v-254c0 -61 8 -71 57 -71c14 0 25 1 40 3v-84c-30 -3 -49 -4 -72 -4c-62 0 -97 13 -116 43c-14 23 -16 42 -16 137v230h-81v78h81v145h107v-145h97zM322 711v-65c0 -70 -29 -106 -91 -113v37c28 6 42 24 44 55h-44v86h91z" />
    <glyph glyph-name="uring" unicode="&#x16f;" horiz-adv-x="516" 
d="M469 483v-483h-100v72c-44 -59 -92 -85 -160 -85c-55 0 -103 20 -132 55c-24 29 -33 66 -33 131v310h107v-276c0 -56 3 -78 14 -95c14 -23 42 -36 78 -36c45 0 82 22 103 62c12 22 16 51 16 108v237h107zM258 740c57 0 105 -49 105 -106c0 -59 -48 -107 -106 -107
c-60 0 -107 48 -107 107s48 106 108 106zM257 687c-30 0 -54 -24 -54 -53c0 -30 24 -54 54 -54c29 0 53 24 53 54c0 28 -24 53 -53 53z" />
    <glyph glyph-name="uhungarumlaut" unicode="&#x171;" horiz-adv-x="516" 
d="M469 483v-483h-100v72c-44 -59 -92 -85 -160 -85c-55 0 -103 20 -132 55c-24 29 -33 66 -33 131v310h107v-276c0 -56 3 -78 14 -95c14 -23 42 -36 78 -36c45 0 82 22 103 62c12 22 16 51 16 108v237h107zM431 693l-76 -141h-60l40 141h96zM284 693l-76 -141h-60l40 141
h96z" />
    <glyph glyph-name="zacute" unicode="&#x17a;" horiz-adv-x="439" 
d="M425 483v-74l-272 -324h287v-85h-427v81l267 317h-248v85h393zM358 693l-113 -141h-70l67 141h116z" />
    <glyph glyph-name="zdotaccent" unicode="&#x17c;" horiz-adv-x="439" 
d="M425 483v-74l-272 -324h287v-85h-427v81l267 317h-248v85h393zM280 673v-102h-103v102h103z" />
    <glyph glyph-name="tcommaaccent" unicode="&#x163;" horiz-adv-x="277" 
d="M266 483v-78h-97v-254c0 -61 8 -71 57 -71c14 0 25 1 40 3v-84c-30 -3 -49 -4 -72 -4c-62 0 -97 13 -116 43c-14 23 -16 42 -16 137v230h-81v78h81v145h107v-145h97zM211 -53v-65c0 -70 -29 -106 -91 -112v37c28 5 42 23 44 54h-44v86h91z" />
    <glyph glyph-name="tcommaaccent" unicode="&#x21b;" horiz-adv-x="277" 
d="M266 483v-78h-97v-254c0 -61 8 -71 57 -71c14 0 25 1 40 3v-84c-30 -3 -49 -4 -72 -4c-62 0 -97 13 -116 43c-14 23 -16 42 -16 137v230h-81v78h81v145h107v-145h97zM211 -53v-65c0 -70 -29 -106 -91 -112v37c28 5 42 23 44 54h-44v86h91z" />
    <glyph glyph-name="amacron" unicode="&#x101;" horiz-adv-x="502" 
d="M141 333h-100c9 108 81 163 211 163c83 0 148 -23 178 -63c17 -21 23 -46 23 -90c0 -13 0 -13 -1 -65c-1 -16 -1 -43 -2 -83c-1 -31 -1 -53 -1 -56c0 -63 2 -69 27 -69c6 0 11 0 24 2v-75c-32 -8 -49 -11 -69 -11c-46 0 -72 19 -78 58c-46 -40 -99 -58 -171 -58
c-99 0 -162 56 -162 144c0 44 17 82 49 106c36 27 53 31 167 45c102 13 112 18 112 63c0 49 -32 73 -100 73c-69 0 -98 -23 -107 -84zM347 184v57c-26 -14 -38 -17 -113 -27c-49 -6 -71 -14 -86 -29c-13 -12 -20 -31 -20 -51c0 -46 32 -72 88 -72c52 0 101 21 120 51
c9 15 11 27 11 71zM406 652v-62h-297v62h297z" />
    <glyph glyph-name="emacron" unicode="&#x113;" horiz-adv-x="516" 
d="M382 151h102c-25 -103 -107 -164 -219 -164c-143 0 -238 100 -238 249c0 151 98 260 234 260c92 0 168 -48 204 -131c18 -40 26 -86 25 -149h-357c4 -96 51 -150 134 -150c58 0 93 26 115 85zM135 287h249c-7 80 -54 130 -124 130s-114 -46 -125 -130zM409 652v-62h-297
v62h297z" />
    <glyph glyph-name="imacron" unicode="&#x12b;" horiz-adv-x="201" 
d="M154 483v-483h-107v483h107zM215 652v-62h-230v62h230z" />
    <glyph glyph-name="kcommaaccent" unicode="&#x137;" horiz-adv-x="482" 
d="M478 483l-185 -177l202 -306h-130l-147 234l-64 -60v-174h-107v667h107v-376l193 192h131zM293 -53v-65c0 -70 -29 -106 -91 -112v37c28 5 42 23 44 54h-44v86h91z" />
    <glyph glyph-name="lcommaaccent" unicode="&#x13c;" horiz-adv-x="201" 
d="M154 667v-667h-107v667h107zM146 -53v-65c0 -70 -29 -106 -91 -112v37c28 5 42 23 44 54h-44v86h91z" />
    <glyph glyph-name="ncommaaccent" unicode="&#x146;" horiz-adv-x="517" 
d="M147 483v-71c44 59 91 84 161 84c61 0 115 -26 140 -68c18 -29 24 -59 24 -120v-308h-107v281c0 42 -2 60 -9 79c-11 29 -43 47 -83 47c-47 0 -87 -24 -104 -62c-11 -24 -15 -52 -15 -103v-242h-107v483h100zM304 -53v-65c0 -70 -29 -106 -91 -112v37c28 5 42 23 44 54
h-44v86h91z" />
    <glyph glyph-name="omacron" unicode="&#x14d;" horiz-adv-x="543" 
d="M275 496c146 0 240 -100 240 -255c0 -156 -94 -254 -243 -254s-245 100 -245 254c0 156 97 255 248 255zM273 411c-86 0 -138 -64 -138 -170c0 -105 52 -169 137 -169c84 0 135 64 135 170c0 104 -52 169 -134 169zM420 652v-62h-297v62h297z" />
    <glyph glyph-name="rcommaaccent" unicode="&#x157;" horiz-adv-x="318" 
d="M330 493v-103c-18 2 -27 3 -38 3c-38 0 -69 -12 -94 -36c-34 -33 -44 -70 -44 -163v-194h-107v483h100v-96c39 74 88 107 164 107c3 0 10 0 19 -1zM147 -53v-65c0 -70 -29 -106 -91 -112v37c28 5 42 23 44 54h-44v86h91z" />
    <glyph glyph-name="umacron" unicode="&#x16b;" horiz-adv-x="516" 
d="M469 483v-483h-100v72c-44 -59 -92 -85 -160 -85c-55 0 -103 20 -132 55c-24 29 -33 66 -33 131v310h107v-276c0 -56 3 -78 14 -95c14 -23 42 -36 78 -36c45 0 82 22 103 62c12 22 16 51 16 108v237h107zM405 652v-62h-297v62h297z" />
    <glyph glyph-name="uogonek" unicode="&#x173;" horiz-adv-x="516" 
d="M469 483v-483c-39 -29 -55 -50 -55 -76c0 -29 25 -48 63 -48c11 0 20 1 37 6v-52c-25 -8 -38 -10 -59 -10c-66 0 -110 35 -110 87c0 33 17 59 61 93h-37v72c-44 -59 -92 -85 -160 -85c-55 0 -103 20 -132 55c-24 29 -33 66 -33 131v310h107v-276c0 -56 3 -78 14 -95
c14 -23 42 -36 78 -36c45 0 82 22 103 62c12 22 16 51 16 108v237h107z" />
    <glyph glyph-name="rcaron" unicode="&#x159;" horiz-adv-x="318" 
d="M330 493v-103c-18 2 -27 3 -38 3c-38 0 -70 -12 -95 -36c-34 -33 -44 -70 -44 -163v-194h-106v483h100v-96c33 71 87 107 163 107c4 0 11 0 20 -1zM44 693h90l51 -85l53 85h84l-90 -141h-97z" />
    <glyph glyph-name="scedilla" unicode="&#x15f;" horiz-adv-x="475" 
d="M244 -13l-30 -44c18 3 25 4 36 4c41 0 74 -29 74 -65c0 -52 -42 -85 -109 -85c-30 0 -57 6 -96 20l17 38c23 -11 46 -16 68 -16c27 0 47 15 47 36c0 20 -19 34 -45 34c-11 0 -18 -1 -34 -6l-17 18l47 67c-115 8 -183 69 -185 167h102c7 -62 44 -90 117 -90
c63 0 104 28 104 70c0 36 -22 50 -115 72c-97 22 -111 27 -139 43c-37 20 -58 58 -58 102c0 90 74 144 197 144c75 0 134 -21 168 -60c21 -24 30 -48 34 -93h-102c-7 53 -38 75 -104 75c-55 0 -87 -21 -87 -56c0 -36 18 -47 123 -69c72 -15 110 -29 140 -50s48 -57 48 -98
c0 -95 -77 -155 -201 -158z" />
    <glyph glyph-name="scedilla" unicode="&#xf6c2;" horiz-adv-x="475" 
d="M244 -13l-30 -44c18 3 25 4 36 4c41 0 74 -29 74 -65c0 -52 -42 -85 -109 -85c-30 0 -57 6 -96 20l17 38c23 -11 46 -16 68 -16c27 0 47 15 47 36c0 20 -19 34 -45 34c-11 0 -18 -1 -34 -6l-17 18l47 67c-115 8 -183 69 -185 167h102c7 -62 44 -90 117 -90
c63 0 104 28 104 70c0 36 -22 50 -115 72c-97 22 -111 27 -139 43c-37 20 -58 58 -58 102c0 90 74 144 197 144c75 0 134 -21 168 -60c21 -24 30 -48 34 -93h-102c-7 53 -38 75 -104 75c-55 0 -87 -21 -87 -56c0 -36 18 -47 123 -69c72 -15 110 -29 140 -50s48 -57 48 -98
c0 -95 -77 -155 -201 -158z" />
    <glyph glyph-name="gcommaaccent" unicode="&#x123;" horiz-adv-x="541" 
d="M493 483v-427c0 -79 -8 -118 -32 -156c-36 -59 -104 -89 -201 -89c-131 0 -204 49 -217 148h108c10 -49 45 -72 112 -72c88 0 127 43 127 142v57c-34 -55 -83 -81 -153 -81c-128 0 -210 94 -210 241c0 150 86 250 216 250c67 0 111 -24 150 -81v68h100zM264 411
c-80 0 -129 -60 -129 -158c0 -102 48 -163 126 -163c79 0 129 63 129 163c0 97 -49 158 -126 158zM221 551v65c0 70 29 106 91 112v-37c-28 -5 -42 -23 -44 -54h44v-86h-91z" />
    <glyph glyph-name="iogonek" unicode="&#x12f;" horiz-adv-x="201" 
d="M154 483v-483c-36 -29 -49 -49 -49 -79c0 -28 19 -44 52 -44c11 0 16 1 29 5v-52c-21 -8 -32 -10 -50 -10c-59 0 -100 35 -100 86c0 37 17 66 55 94h-44v483h107zM154 667v-101h-107v101h107z" />
    <glyph glyph-name="Scommaaccent" unicode="&#x218;" horiz-adv-x="580" 
d="M530 471h-112c-8 80 -55 119 -144 119c-80 0 -128 -35 -128 -94c0 -27 11 -48 31 -59c26 -15 44 -20 138 -42c87 -20 127 -34 161 -56c52 -35 80 -84 80 -145c0 -129 -102 -209 -265 -209c-176 0 -279 87 -281 237h115c3 -95 62 -144 173 -144c89 0 143 40 143 106
c0 34 -15 56 -54 75c-21 11 -31 14 -102 31c-89 22 -154 45 -182 63c-45 29 -69 75 -69 134c0 118 97 195 247 195c154 0 244 -77 249 -211zM325 -60v-65c0 -70 -29 -106 -91 -112v37c28 5 42 23 44 54h-44v86h91z" />
    <glyph glyph-name="Dcroat" unicode="&#x110;" horiz-adv-x="653" 
d="M51 667h255c100 0 164 -20 218 -68c64 -57 99 -147 99 -254c0 -117 -32 -209 -94 -271c-55 -54 -112 -74 -217 -74h-261v309h-63v83h63v275zM168 567v-175h146v-83h-146v-209h128c80 0 118 12 151 49c38 43 58 107 58 190c0 149 -72 228 -207 228h-130z" />
    <glyph glyph-name="dcroat" unicode="&#x111;" horiz-adv-x="553" 
d="M398 609v58h107v-58h60v-70h-60v-539h-100v66c-34 -53 -84 -79 -155 -79c-137 0 -223 99 -223 256c0 154 85 253 219 253c68 0 122 -27 152 -76v119h-151v70h151zM269 411c-84 0 -134 -63 -134 -168s52 -171 134 -171c83 0 133 64 133 169s-51 170 -133 170z" />
    <glyph glyph-name="middot" unicode="&#xe000;" horiz-adv-x="215" 
d="M173 312v-126h-130v126h130z" />
    <glyph glyph-name="commaaccent" unicode="&#xf6c3;" horiz-adv-x="500" 
d="M296 -53v-65c0 -70 -29 -106 -91 -112v37c28 5 42 23 44 54h-44v86h91z" />
    <glyph glyph-name="nbspace" unicode="&#xe001;" horiz-adv-x="250" 
 />
    <glyph glyph-name="lozenge" unicode="&#x25ca;" horiz-adv-x="667" 
d="M334 693l259 -359l-259 -360l-260 360zM334 604l-197 -270l197 -271l197 271z" />
    <glyph glyph-name="Delta" unicode="&#x394;" horiz-adv-x="635" 
d="M7 0l253 667h114l254 -667h-621zM148 96h336l-166 454z" />
    <glyph glyph-name="Delta" unicode="&#x2206;" horiz-adv-x="635" 
d="M7 0l253 667h114l254 -667h-621zM148 96h336l-166 454z" />
    <glyph glyph-name="notequal" unicode="&#x2260;" horiz-adv-x="500" 
d="M264 459l65 126l74 -37l-46 -89h110v-97h-150l-44 -87h193v-97h-230l-60 -118l-75 37l42 81h-110v97h146l45 87h-191v97h231z" />
    <glyph glyph-name="radical" unicode="&#x221a;" horiz-adv-x="667" 
d="M747 827v-92h-181l-204 -735h-125l-73 275h-84v92h148l67 -255l190 715h262z" />
    <glyph glyph-name="lessequal" unicode="&#x2264;" horiz-adv-x="500" 
d="M466 621v-109l-306 -111l306 -109v-109l-433 170v98zM466 155v-102h-433v102h433z" />
    <glyph glyph-name="greaterequal" unicode="&#x2265;" horiz-adv-x="500" 
d="M33 183v109l306 109l-306 111v109l433 -170v-98zM33 53v102h433v-102h-433z" />
    <glyph glyph-name="summation" unicode="&#x2211;" horiz-adv-x="667" 
d="M609 750v-242h-100l-11 140h-341l246 -381l-245 -416h349l7 143h104v-244h-584v117l238 400l-238 367v116h575z" />
    <glyph glyph-name="partialdiff" unicode="&#x2202;" horiz-adv-x="500" 
d="M73 581l13 87c122 -16 196 -45 263 -106c82 -76 126 -184 126 -312c0 -69 -13 -119 -41 -163c-41 -61 -108 -97 -184 -97c-126 0 -224 98 -224 226c0 122 89 218 203 218c34 0 72 -10 94 -24c9 -5 17 -13 42 -37c-5 9 -10 18 -10 20l-24 48c-42 74 -140 127 -258 140z
M255 352c-74 0 -131 -61 -131 -138c0 -74 57 -137 125 -137c71 0 126 61 126 140c0 76 -52 135 -120 135z" />
    </font>
</defs>
</svg>
