<svg width="94" height="94" viewBox="0 0 94 94" fill="none" xmlns="http://www.w3.org/2000/svg">
<path d="M87 42.9772L47 10.9607" stroke="#242424" stroke-width="4" stroke-linecap="round" stroke-linejoin="round"/>
<path d="M7 42.9772L47 10.9607" stroke="#242424" stroke-width="4" stroke-linecap="round" stroke-linejoin="round"/>
<path d="M19 87V34.9731" stroke="#242424" stroke-width="4" stroke-linecap="round"/>
<path d="M75 87V34.9731" stroke="#242424" stroke-width="4" stroke-linecap="round"/>
<path d="M19 87H75" stroke="#242424" stroke-width="4" stroke-linecap="round"/>
<path d="M47.2879 52.7486L57.7219 56.3939V71.2642C57.7219 71.5531 57.6046 71.8301 57.3958 72.0344C57.187 72.2386 56.9038 72.3534 56.6085 72.3534H52.1549C51.8596 72.3534 51.5764 72.2386 51.3676 72.0344C51.1588 71.8301 51.0415 71.5531 51.0415 71.2642V63.6401H39.9075V71.2642C39.9075 71.5531 39.7902 71.8301 39.5813 72.0344C39.3725 72.2386 39.0893 72.3534 38.7941 72.3534H34.3404C34.0452 72.3534 33.762 72.2386 33.5532 72.0344C33.3444 71.8301 33.227 71.5531 33.227 71.2642V56.7029C30.6412 55.8009 28.7734 53.4062 28.7734 50.5703C28.7734 49.9925 29.008 49.4385 29.4257 49.03C29.8433 48.6215 30.4097 48.392 31.0002 48.392C31.5908 48.392 32.1572 48.6215 32.5748 49.03C32.9924 49.4385 33.227 49.9925 33.227 50.5703C33.2281 51.1477 33.4631 51.7011 33.8805 52.1094C34.2978 52.5177 34.8636 52.7475 35.4538 52.7486H47.2879ZM64.4023 45.1245V47.3028C64.4023 48.4582 63.9331 49.5664 63.0979 50.3834C62.2627 51.2004 61.1299 51.6594 59.9487 51.6594H57.7219V54.0814L48.8147 50.9699V40.7679C48.8147 39.7978 50.013 39.3118 50.7151 39.998L52.6135 41.857H56.3454C57.1046 41.857 57.9982 42.3961 58.337 43.0612L58.8353 44.0353H63.2889C63.5842 44.0353 63.8674 44.1501 64.0762 44.3543C64.285 44.5586 64.4023 44.8356 64.4023 45.1245ZM56.6085 45.1245C56.6085 44.9091 56.5432 44.6985 56.4208 44.5194C56.2985 44.3403 56.1246 44.2007 55.9212 44.1182C55.7177 44.0358 55.4938 44.0142 55.2779 44.0563C55.0619 44.0983 54.8635 44.202 54.7078 44.3543C54.5521 44.5067 54.446 44.7007 54.4031 44.912C54.3601 45.1233 54.3822 45.3423 54.4664 45.5413C54.5507 45.7403 54.6934 45.9104 54.8765 46.0301C55.0596 46.1498 55.2749 46.2136 55.4951 46.2136C55.7904 46.2136 56.0736 46.0989 56.2824 45.8946C56.4912 45.6904 56.6085 45.4133 56.6085 45.1245Z" fill="#242424"/>
<path d="M41.7669 13.6964C41.2141 12.386 40.417 11.1985 39.4202 10.2005C38.4227 9.1994 37.2466 8.40387 35.9559 7.85714C34.6175 7.28795 33.182 6.99661 31.7327 7.00003C29.6995 7.00003 27.7158 7.57003 25.9919 8.64669C25.5794 8.90424 25.1876 9.18713 24.8165 9.49535C24.4453 9.18713 24.0535 8.90424 23.6411 8.64669C21.9172 7.57003 19.9334 7.00003 17.9002 7.00003C16.4361 7.00003 15.0174 7.28714 13.6771 7.85714C12.3821 8.40602 11.2149 9.19557 10.2127 10.2005C9.21467 11.1974 8.41739 12.3852 7.86608 13.6964C7.29282 15.0602 7 16.5084 7 17.9988C7 19.4048 7.28044 20.8699 7.83721 22.3604C8.30324 23.6059 8.97136 24.8979 9.82507 26.2026C11.1778 28.2672 13.0378 30.4205 15.3473 32.6034C19.1746 36.2218 22.9647 38.7214 23.1256 38.8227L24.103 39.4645C24.536 39.7474 25.0928 39.7474 25.5258 39.4645L26.5033 38.8227C26.6641 38.7171 30.4501 36.2218 34.2815 32.6034C36.591 30.4205 38.451 28.2672 39.8038 26.2026C40.6575 24.8979 41.3297 23.6059 41.7916 22.3604C42.3484 20.8699 42.6288 19.4048 42.6288 17.9988C42.6329 16.5084 42.3401 15.0602 41.7669 13.6964Z" fill="#FFC41E"/>
</svg>
