<svg width="90" height="90" viewBox="0 0 90 90" fill="none" xmlns="http://www.w3.org/2000/svg">
<path d="M36.8429 35.197C38.1189 31.4474 36.1124 27.372 32.3621 26.0958C28.6119 24.8196 24.5373 26.8257 23.2614 30.5753C21.9845 34.3275 23.9895 38.4009 27.7404 39.6773C31.4913 40.9538 35.566 38.9493 36.8429 35.197Z" fill="white"/>
<path d="M65.7829 38.9488C62.0333 37.6729 57.9581 39.6787 56.6822 43.4283C55.4053 47.1805 57.412 51.2531 61.1616 52.529C64.9119 53.8052 68.9862 51.8021 70.263 48.0498C71.539 44.3002 69.5338 40.2252 65.7829 38.9488Z" fill="white"/>
<path d="M54.7326 51.1988C54.4586 50.4563 54.0196 49.5553 53.4926 48.5878C52.3481 45.2375 49.7297 42.4309 46.1194 41.2023C42.9062 40.1089 39.5546 40.4865 36.7753 41.9598C35.2723 42.5742 33.906 43.2083 32.9741 43.7952L32.3524 44.182C29.4534 45.983 25.8453 48.2232 24.0693 53.5038C22.4206 58.4078 25.0524 63.7524 29.9362 65.4144C31.2905 65.8785 32.7338 66.0235 34.1534 65.838C35.5729 65.6525 36.9305 65.1416 38.1201 64.345C38.5768 65.7022 39.3412 66.9355 40.3533 67.9486C41.3655 68.9616 42.5981 69.727 43.955 70.1849C48.8368 71.8462 54.1814 69.2166 55.8671 64.3244C57.6806 59.0566 56.1872 55.0804 54.9891 51.8852L54.7326 51.1988Z" fill="white"/>
<path d="M48.0642 37.0311C52.1966 38.4374 56.6866 36.2274 58.0928 32.0949C59.4991 27.9625 57.2891 23.4725 53.1566 22.0663C49.0242 20.66 44.5342 22.87 43.128 27.0025C41.7217 31.1349 43.9317 35.6249 48.0642 37.0311Z" fill="white"/>
</svg>
